<svg width="28" height="30" viewBox="0 0 28 30" fill="none" xmlns="http://www.w3.org/2000/svg">
<path d="M8.5913 16.1833C8.48696 16.5012 8.48696 16.5012 8.27826 17.0311L8.24348 17.1017C8 17.7728 7.58261 18.5853 7.30435 19.1151C6.88696 19.327 6.46957 19.539 5.87826 19.8922C4.62609 20.634 3.75652 21.1638 3.44348 22.0116C3.26957 22.4708 2.85217 23.6011 3.75652 24.3429C4.06957 24.6255 4.48696 24.7667 4.86957 24.7667C5.28696 24.7667 5.66957 24.6255 5.98261 24.3429C6.4 23.9543 6.57391 23.6011 6.92174 22.93C7.02609 22.7533 7.13043 22.5414 7.26957 22.2588C7.82609 21.1638 8.17391 20.422 8.24348 20.3161C8.24348 20.2808 8.27826 20.2454 8.31304 20.2101C8.55652 20.1041 8.83478 19.9982 9.14783 19.8569C10.2957 19.3624 10.7826 19.2211 11.8261 18.8678L12.313 18.6912C12.6957 18.5499 12.9739 18.4793 13.2522 18.3733C13.6 18.232 13.8783 18.1614 14.1565 18.0554C14.4 18.2674 14.6435 18.5146 14.9565 18.7619C15.6174 19.327 16.0696 19.6096 16.5565 19.7509C16.9739 19.8569 17.5652 19.8216 17.9478 19.7156C19.1652 19.3977 19.2 18.4793 19.2348 18.0907C19.2696 17.5609 18.9565 16.6425 17.6 16.3952C16.9739 16.2893 16.5565 16.2893 16.1739 16.2893C15.7913 16.2893 15.4783 16.3246 14.9913 16.3952C14.8522 16.4306 14.6783 16.4659 14.5739 16.4659C14.2261 16.1127 13.9826 15.7594 13.6 15.2296C12.8696 14.1699 12.4174 13.4281 11.687 12.1212C11.5826 11.9446 11.4783 11.7326 11.3739 11.556C11.4435 11.2381 11.513 10.8849 11.5826 10.461L11.687 9.9665C11.9652 8.62424 12.0348 8.16504 11.8261 7.07004C11.5826 5.86906 10.7826 5.58648 10.3652 5.6218C10.1565 5.6218 9.32174 5.76309 8.97391 6.99939C8.73043 7.84714 8.76522 8.48295 8.97391 9.36602C9.11304 10.0018 9.42609 10.7789 9.94783 11.7326C9.77391 12.4744 9.56522 13.1456 9.18261 14.2759C8.83478 15.4415 8.66087 15.9007 8.5913 16.1833ZM6.05217 21.5524C5.91304 21.7996 5.8087 22.0469 5.70435 22.2235C5.35652 22.8946 5.28696 23.0359 5.07826 23.2479C4.93913 23.3538 4.76522 23.2832 4.66087 23.2125C4.62609 23.1772 4.52174 23.1066 4.76522 22.4708C4.90435 22.1175 5.56522 21.6937 6.15652 21.3051C6.15652 21.4111 6.08696 21.4817 6.05217 21.5524ZM16.2435 17.6669C16.5913 17.6669 16.9391 17.6669 17.4261 17.7728C17.7739 17.8435 17.8783 17.9848 17.8783 18.0201C17.8783 18.0907 17.8783 18.232 17.8783 18.2674C17.8783 18.2674 17.8435 18.3027 17.6696 18.338C17.4261 18.4086 17.0783 18.4086 16.9739 18.3733C16.8 18.3027 16.5217 18.1967 15.9304 17.7022C16.0348 17.6669 16.1391 17.6669 16.2435 17.6669ZM10.3652 7.35262C10.4 7.24665 10.4348 7.14068 10.4696 7.10536C10.5043 7.14068 10.5043 7.21133 10.5391 7.3173C10.6783 8.0944 10.6783 8.34166 10.4696 9.36602C10.4348 9.26005 10.4 9.15408 10.4 9.08343C10.2261 8.30633 10.1913 7.91778 10.3652 7.35262ZM9.56522 17.5962L9.6 17.5256C9.8087 16.9604 9.8087 16.9604 9.94783 16.6072C10.0174 16.3599 10.1913 15.8654 10.5739 14.7351C10.7478 14.2759 10.8522 13.852 10.9565 13.4988C11.4783 14.4172 11.8957 15.1236 12.5217 16.0067C12.7652 16.3246 12.9391 16.6072 13.1478 16.8544C13.0435 16.8898 12.9391 16.9251 12.8348 16.9604C12.5913 17.0664 12.313 17.137 11.9304 17.2783L11.4435 17.4549C10.5739 17.7375 10.087 17.9141 9.28696 18.232C9.3913 18.0201 9.46087 17.8082 9.56522 17.5962ZM21.5652 17.5256V20.9166H17.0783C15.7565 20.9166 14.6435 22.0469 14.6435 23.3892V28.0518H4.13913C2.6087 28.0518 1.3913 26.7801 1.3913 25.1906V4.77406C1.3913 3.21985 2.64348 1.91291 4.13913 1.91291H18.8174C20.1391 1.91291 21.2522 2.90195 21.5304 4.20889C21.7739 4.17357 22.0522 4.17357 22.2957 4.17357C22.5043 4.17357 22.713 4.17357 22.9217 4.20889C22.6435 2.12485 20.9043 0.5 18.7826 0.5H4.13913C1.84348 0.5 0 2.40743 0 4.77406V25.2259C0 27.5926 1.84348 29.5 4.13913 29.5H15.3391C15.3739 29.5 15.4435 29.5 15.4783 29.5C15.513 29.5 15.513 29.5 15.5478 29.4647C15.5826 29.4647 15.5826 29.4647 15.6174 29.4294C15.6522 29.4294 15.6522 29.394 15.687 29.394C15.687 29.394 15.7217 29.394 15.7217 29.3587C15.7565 29.3234 15.7913 29.2881 15.8261 29.2527L22.713 22.1529C22.713 22.1529 22.713 22.1175 22.7478 22.1175C22.7826 22.0822 22.7826 22.0822 22.8174 22.0469C22.8174 22.0116 22.8522 22.0116 22.8522 21.9762C22.8522 21.9409 22.887 21.9409 22.887 21.9056C22.887 21.8703 22.887 21.8703 22.9217 21.835C22.9217 21.7996 22.9217 21.7996 22.9217 21.7643C22.9217 21.729 22.9217 21.6583 22.9217 21.623V17.5256C22.713 17.5609 22.4696 17.5609 22.2609 17.5609C22.0174 17.5609 21.7739 17.5609 21.5652 17.5256ZM16.0348 27.0274V23.4245C16.0348 22.824 16.487 22.3648 17.0783 22.3648H20.5913L16.0348 27.0274ZM22.2609 5.02132C19.0957 5.02132 16.5217 7.6352 16.5217 10.8496C16.5217 14.0639 19.0957 16.6778 22.2609 16.6778C25.4261 16.6778 28 14.0639 28 10.8496C28 7.6352 25.4261 5.02132 22.2609 5.02132ZM22.2609 15.6181C19.687 15.6181 17.5652 13.4635 17.5652 10.8496C17.5652 8.23569 19.687 6.081 22.2609 6.081C24.8348 6.081 26.9565 8.23569 26.9565 10.8496C26.9565 13.4635 24.8696 15.6181 22.2609 15.6181ZM24.3826 11.3794C24.487 11.4854 24.5217 11.6267 24.5217 11.768C24.5217 11.9093 24.487 12.0505 24.3826 12.1565L22.6435 13.9227C22.5391 14.0286 22.4348 14.0639 22.2957 14.0639H22.2609C22.2261 14.0639 22.2261 14.0639 22.1913 14.0639C22.087 14.0639 21.9826 13.9933 21.913 13.9227L21.8783 13.8873L20.1391 12.1212C19.9304 11.9093 19.9304 11.5914 20.1391 11.3794C20.3478 11.1675 20.6609 11.1675 20.8696 11.3794L21.7043 12.2272V8.20037C21.7043 7.91778 21.9478 7.67052 22.2261 7.67052C22.5043 7.67052 22.7826 7.91778 22.7826 8.20037V12.2272L23.6174 11.3794C23.8609 11.1675 24.1739 11.1675 24.3826 11.3794Z" fill="#7AB317"/>
</svg>
