<svg width="42" height="42" viewBox="0 0 42 42" fill="none" xmlns="http://www.w3.org/2000/svg">
<rect x="1.5" y="1.5" width="39" height="39" fill="white" stroke="#7AB317" stroke-width="3"/>
<path d="M25.1 23H24.35C24.5 23.45 24.5 24.05 24.5 24.5C24.5 27.8 21.8 30.5 18.5 30.5C15.2 30.5 12.5 27.8 12.5 24.5C12.5 21.35 14.9 18.8 18.05 18.5L17.75 17C13.85 17.6 11 20.6 11 24.5C11 28.7 14.3 32 18.5 32C22.1 32 25.1 29.45 25.85 26.15L25.1 23Z" fill="#444444"/>
<path d="M29.15 27.5L27.5 20H21.35L21.05 18.5H26V17H20.75L19.85 13.25C21.2 13.1 22.25 12.05 22.25 10.7C22.25 9.2 21.05 8 19.55 8C18.05 8 17 9.2 17 10.7C17 11.6 17.45 12.5 18.2 12.95L20.15 21.5H26.3L28.1 29H32V27.5H29.15Z" fill="#444444"/>
</svg>
