<svg width="42" height="42" viewBox="0 0 42 42" fill="none" xmlns="http://www.w3.org/2000/svg">
<rect x="1.5" y="1.5" width="39" height="39" fill="white" stroke="#7AB317" stroke-width="3"/>
<path d="M7.392 28C7.36 28 7.344 27.952 7.344 27.856C7.344 27.76 7.36 27.712 7.392 27.712C8.096 27.712 8.608 27.672 8.928 27.592C9.264 27.496 9.496 27.336 9.624 27.112C9.752 26.888 9.816 26.536 9.816 26.056V21.544C9.816 20.888 9.776 20.44 9.696 20.2C9.616 19.944 9.448 19.816 9.192 19.816C8.872 19.816 8.272 20.024 7.392 20.44L7.344 20.464C7.296 20.464 7.256 20.424 7.224 20.344C7.192 20.264 7.208 20.216 7.272 20.2L10.704 18.52C10.72 18.504 10.744 18.496 10.776 18.496C10.824 18.496 10.864 18.52 10.896 18.568C10.928 18.6 10.944 18.64 10.944 18.688V26.056C10.944 26.552 11 26.912 11.112 27.136C11.224 27.36 11.44 27.512 11.76 27.592C12.096 27.672 12.624 27.712 13.344 27.712C13.392 27.712 13.416 27.76 13.416 27.856C13.416 27.952 13.392 28 13.344 28C12.832 28 12.424 27.992 12.12 27.976L10.368 27.952L8.664 27.976C8.36 27.992 7.936 28 7.392 28ZM21.0728 21.232C22.1608 21.232 22.9608 21.52 23.4728 22.096C23.9848 22.656 24.2408 23.352 24.2408 24.184C24.2408 24.936 24.0248 25.632 23.5928 26.272C23.1768 26.896 22.6008 27.392 21.8648 27.76C21.1448 28.128 20.3528 28.312 19.4888 28.312C18.1448 28.312 17.0808 27.848 16.2968 26.92C15.5288 25.992 15.1448 24.688 15.1448 23.008C15.1448 21.52 15.4808 20.056 16.1528 18.616C16.8248 17.176 17.7928 15.888 19.0568 14.752C20.3368 13.6 21.8408 12.728 23.5688 12.136C23.6328 12.12 23.6808 12.152 23.7128 12.232C23.7448 12.312 23.7368 12.368 23.6888 12.4C22.1368 13.088 20.8168 13.992 19.7288 15.112C18.6408 16.216 17.8248 17.424 17.2808 18.736C16.7368 20.032 16.4648 21.312 16.4648 22.576C16.4648 24.096 16.7928 25.36 17.4488 26.368C18.1208 27.376 19.0248 27.88 20.1608 27.88C20.9928 27.88 21.6568 27.608 22.1528 27.064C22.6648 26.504 22.9208 25.752 22.9208 24.808C22.9208 23.928 22.7048 23.216 22.2728 22.672C21.8408 22.112 21.2088 21.832 20.3768 21.832C19.9288 21.832 19.5128 21.928 19.1288 22.12C18.7448 22.296 18.3048 22.608 17.8088 23.056C17.7928 23.072 17.7688 23.08 17.7368 23.08C17.6888 23.08 17.6408 23.056 17.5928 23.008C17.5608 22.96 17.5528 22.92 17.5688 22.888C18.4488 21.784 19.6168 21.232 21.0728 21.232ZM33.861 23.008C33.893 23.008 33.917 23.056 33.933 23.152C33.965 23.232 33.981 23.328 33.981 23.44C33.981 23.552 33.965 23.656 33.933 23.752C33.917 23.848 33.893 23.896 33.861 23.896H30.357V27.4C30.357 27.432 30.301 27.464 30.189 27.496C30.077 27.512 29.957 27.52 29.829 27.52C29.573 27.52 29.445 27.496 29.445 27.448V23.896H25.941C25.909 23.896 25.877 23.848 25.845 23.752C25.829 23.64 25.821 23.528 25.821 23.416C25.821 23.32 25.829 23.232 25.845 23.152C25.861 23.056 25.885 23.008 25.917 23.008H29.445V19.504C29.445 19.472 29.493 19.448 29.589 19.432C29.685 19.4 29.789 19.384 29.901 19.384C30.013 19.384 30.117 19.4 30.213 19.432C30.309 19.448 30.357 19.472 30.357 19.504V23.008H33.861Z" fill="black"/>
</svg>
