<svg width="34" height="28" viewBox="0 0 34 28" fill="none" xmlns="http://www.w3.org/2000/svg">
<path d="M12.17 8H31.82C32.47 8 33 8.53 33 9.17V20.82C33 21.47 32.47 21.99 31.83 21.99H29V26.19L22.04 22H12.17C11.53 22 11 21.47 11 20.83V9.17C11 8.53 11.53 8 12.17 8Z" stroke="white" stroke-width="2" stroke-miterlimit="10" stroke-linecap="round" stroke-linejoin="round"/>
<path d="M7.34 15H2.17C1.53 15 1 14.47 1 13.83V2.17C1 1.53 1.53 1 2.17 1H21.82C22.47 1 23 1.53 23 2.17V4.23" stroke="white" stroke-width="2" stroke-miterlimit="10" stroke-linecap="round" stroke-linejoin="round"/>
<path d="M16 13H28" stroke="white" stroke-width="2" stroke-miterlimit="10" stroke-linecap="round" stroke-linejoin="round"/>
<path d="M16 17H23" stroke="white" stroke-width="2" stroke-miterlimit="10" stroke-linecap="round" stroke-linejoin="round"/>
</svg>
