<svg width="44" height="44" viewBox="0 0 44 44" fill="none" xmlns="http://www.w3.org/2000/svg">
<path d="M34.375 9.625H41.25" stroke="#7AB317" stroke-width="3" stroke-linecap="round" stroke-linejoin="round"/>
<path d="M2.75 9.625H26.125" stroke="#7AB317" stroke-width="3" stroke-linecap="round" stroke-linejoin="round"/>
<path d="M30.25 13.75C32.5282 13.75 34.375 11.9032 34.375 9.625C34.375 7.34683 32.5282 5.5 30.25 5.5C27.9718 5.5 26.125 7.34683 26.125 9.625C26.125 11.9032 27.9718 13.75 30.25 13.75Z" stroke="#7AB317" stroke-width="3" stroke-linecap="round" stroke-linejoin="round"/>
<path d="M13.75 26.125C16.0282 26.125 17.875 24.2782 17.875 22C17.875 19.7218 16.0282 17.875 13.75 17.875C11.4718 17.875 9.625 19.7218 9.625 22C9.625 24.2782 11.4718 26.125 13.75 26.125Z" stroke="#7AB317" stroke-width="3" stroke-linecap="round" stroke-linejoin="round"/>
<path d="M24.75 38.5C27.0282 38.5 28.875 36.6532 28.875 34.375C28.875 32.0968 27.0282 30.25 24.75 30.25C22.4718 30.25 20.625 32.0968 20.625 34.375C20.625 36.6532 22.4718 38.5 24.75 38.5Z" stroke="#7AB317" stroke-width="3" stroke-linecap="round" stroke-linejoin="round"/>
<path d="M17.875 22H41.25" stroke="#7AB317" stroke-width="3" stroke-linecap="round" stroke-linejoin="round"/>
<path d="M2.75 22H9.625" stroke="#7AB317" stroke-width="3" stroke-linecap="round" stroke-linejoin="round"/>
<path d="M28.875 34.375H41.25" stroke="#7AB317" stroke-width="3" stroke-linecap="round" stroke-linejoin="round"/>
<path d="M2.75 34.375H20.625" stroke="#7AB317" stroke-width="3" stroke-linecap="round" stroke-linejoin="round"/>
</svg>
