<svg class="svg-sprite">
        <symbol id="svg-logo" viewBox="0 0 50 43">
            <path d="M35.0141 25.1852L39.9859 22.3209V20.8188L35.0141 23.6832V25.1852ZM30.0071 14.4614L25 17.2908V18.8278L30.0071 15.9634V14.4614ZM25 43L50 28.7132V27.1763L25 41.498V43ZM35.0141 29.7262V31.2283L39.9859 28.3639V26.8619L35.0141 29.7262ZM39.9859 10.2348V8.73274L35.0141 11.5971V13.0991L39.9859 10.2348ZM35.0141 16.1381L39.9859 13.2738V11.7368L35.0141 14.6011V16.1381ZM25 39.961L50 25.6742V24.1722L25 38.459V39.961ZM35.0141 19.1422L39.9859 16.2778V14.7758L35.0141 17.6401V19.1422ZM30.0071 17.4655L25 20.3298V21.8318L30.0071 18.9675V17.4655ZM35.0141 22.1812L39.9859 19.3168V17.8148L35.0141 20.6442V22.1812ZM44.9929 16.4525L50 13.5881V12.0861L44.9929 14.9504V16.4525ZM44.9929 19.4565L50 16.6271V15.0902L44.9929 17.9545V19.4565ZM30.0071 11.4224L25 14.2868V15.7888L30.0071 12.9245V11.4224ZM44.9929 25.5345L50 22.6702V21.1332L44.9929 23.9976V25.5345ZM44.9929 22.4955L50 19.6312V18.1292L44.9929 20.9935V22.4955ZM30.0071 32.5906L25 35.4549V36.9569L30.0071 34.0926V32.5906ZM44.9929 10.4094L50 7.54509V6.04305L44.9929 8.90739V10.4094ZM44.9929 5.8684V7.37043L50 4.54102V3.00406L44.9929 5.8684ZM50 0L44.9929 2.86434V4.36637L50 1.50203V0ZM39.9859 5.69374L35.0141 8.55808V10.095L39.9859 7.23071V5.69374ZM35.0141 28.2242L39.9859 25.3599V23.8578L35.0141 26.6872V28.2242ZM44.9929 13.4135L50 10.5841V9.04712L44.9929 11.9115V13.4135ZM30.0071 26.5475L25 29.4119V30.9139L30.0071 28.0496V26.5475ZM30.0071 23.5085L25 26.3729V27.8749L30.0071 25.0106V23.5085ZM30.0071 20.5045L25 23.3339V24.8708L30.0071 22.0065V20.5045ZM30.0071 29.5516L25 32.4159V33.918L30.0071 31.0536V29.5516ZM0 28.7132L5.00705 31.5776V8.55808L10.0141 11.4224V34.407L15.0212 37.2713V14.2868L19.9929 17.1511V40.1357L25 43V14.2868L0 0V28.7132Z" fill="white"/>
        </symbol><!-- #svg-logo - END -->

        <symbol id="svg-logo-title"  viewBox="0 0 185 43">
            <path d="M74 6V14H72.2316V10.6829H69.8316V14H68V6H69.7684V9.12195H72.1684V6H74Z" fill="white"/>
            <path d="M78.9643 6L81 14H79.3393L78.9107 12.374H76.7679L76.3393 14H75L77.0893 6H78.9643ZM77.1964 10.878H78.5893L77.8929 8.0813L77.1964 10.878Z" fill="white"/>
            <path d="M82 14.3108V6H83.8318V12.6216H86.1869V6H88.0187V12.6216H89V16H87.6916L87.5607 14.2432H82V14.3108Z" fill="white"/>
            <path d="M91 6V14H89V6H91Z" fill="white"/>
            <path d="M94.9693 13.995C94.5442 14.0237 94.1197 13.9283 93.7388 13.7184C93.3578 13.5085 93.0339 13.1916 92.7996 12.7997C92.2789 11.9671 92 10.9798 92 9.96862C92 8.95746 92.2789 7.97016 92.7996 7.13757C93.0585 6.76261 93.3968 6.46331 93.7851 6.26588C94.1733 6.06846 94.5995 5.97893 95.0264 6.00514C95.4596 5.97604 95.8923 6.07081 96.2824 6.28025C96.6726 6.48968 97.007 6.80668 97.2532 7.20048C97.7616 8.01267 98.0216 8.98239 97.9955 9.96862C98.0383 10.9767 97.7773 11.9721 97.2532 12.7997C96.9906 13.19 96.645 13.5031 96.2467 13.7115C95.8484 13.92 95.4098 14.0173 94.9693 13.995ZM94.9693 7.51504C94.1129 7.51504 93.6561 8.3329 93.6561 10.0315C93.6561 11.7302 94.1129 12.548 94.9693 12.548C95.8258 12.548 96.2255 11.7302 96.2255 10.0315C96.2255 8.3329 95.8258 7.51504 94.9693 7.51504Z" fill="white"/>
            <path d="M105 6V14H103.232V10.6829H100.768V14H99V6H100.768V9.12195H103.168V6H105Z" fill="white"/>
            <path d="M109.964 6L112 14H110.339L109.911 12.374H107.768L107.339 14H106L108.089 6H109.964ZM108.196 10.878H109.589L108.893 8.0813L108.196 10.878Z" fill="white"/>
            <path d="M113.606 14H112L114.248 6H116.752L119 14H117.009L115.339 7.69106L113.606 14Z" fill="white"/>
            <path d="M120 14V6H121.75V8.92683H123.062C123.589 8.91098 124.116 8.97674 124.624 9.12195C125.048 9.2635 125.405 9.56524 125.624 9.96748C125.88 10.3965 126.01 10.8936 125.999 11.3984C126.005 11.734 125.948 12.0676 125.83 12.3801C125.712 12.6926 125.536 12.9778 125.312 13.2195C125.031 13.4746 124.704 13.6692 124.35 13.792C123.996 13.9148 123.622 13.9634 123.25 13.935H120V14ZM121.812 12.5041H123.125C123.875 12.5041 124.187 12.1789 124.187 11.4634C124.187 10.748 123.812 10.4228 123.125 10.4228H121.75V12.5041H121.812Z" fill="white"/>
            <path d="M132 6V14H130.213V10.6829H127.787V14H126V6H127.787V9.12195H130.213V6H132Z" fill="white"/>
            <path d="M135.714 13.2195V14H134V6H135.714V9.38211C135.724 9.96823 135.704 10.5545 135.653 11.1382C135.885 10.5663 136.173 10.0214 136.51 9.5122L138.286 6.84553V6H140V14H138.286V10.3577C138.271 9.85816 138.292 9.35814 138.347 8.86179C138.135 9.44431 137.847 9.99183 137.49 10.4878L135.714 13.2195Z" fill="white"/>
            <path d="M142.714 13.2453V14H141V6.26415H142.714V9.53459C142.724 10.1014 142.704 10.6683 142.653 11.2327C142.885 10.6797 143.173 10.1528 143.51 9.66038L145.286 7.08176V6.26415H147V14H145.286V10.478C145.271 9.99491 145.292 9.5114 145.347 9.03145C145.135 9.59474 144.847 10.1242 144.49 10.6038L142.714 13.2453ZM141.612 4H142.469C142.475 4.10839 142.501 4.21454 142.548 4.31198C142.594 4.40942 142.66 4.4961 142.74 4.56672C142.82 4.63735 142.914 4.69045 143.014 4.72277C143.115 4.75509 143.221 4.76596 143.327 4.75472C143.436 4.77245 143.548 4.76656 143.655 4.73743C143.762 4.7083 143.861 4.65658 143.948 4.58556C144.034 4.51453 144.105 4.42577 144.156 4.32495C144.208 4.22413 144.238 4.11345 144.245 4H145.102C145.059 4.4521 144.865 4.87474 144.551 5.19497C144.386 5.34878 144.193 5.467 143.982 5.54262C143.772 5.61824 143.549 5.64973 143.327 5.63522C142.907 5.65561 142.495 5.52182 142.163 5.25786C141.98 5.10895 141.834 4.91694 141.738 4.69802C141.642 4.47909 141.599 4.23969 141.612 4Z" fill="white"/>
            <path d="M154.6 14L152.6 7.49594V14H151V6H154L155.467 10.748L157 6H160V14H158.067V7.49594L156 14H154.6Z" fill="white"/>
            <path d="M162.547 11.5895L160 6H161.755L163.283 9.50969L164.528 6H166L163.906 11.9145C163.705 12.5225 163.397 13.0759 163 13.5393C162.609 13.8719 162.127 14.0333 161.642 13.9943H160.962V12.4994H161.528C161.741 12.4999 161.952 12.4559 162.151 12.3694C162.332 12.147 162.468 11.8804 162.547 11.5895Z" fill="white"/>
            <path d="M166 11.5851L167.56 11.3316C167.572 11.508 167.617 11.68 167.694 11.8372C167.77 11.9944 167.876 12.1335 168.005 12.2461C168.134 12.3587 168.284 12.4424 168.444 12.4922C168.605 12.5421 168.773 12.5569 168.939 12.5359C169.779 12.5359 170.199 12.2189 170.199 11.5218C170.209 11.3803 170.189 11.2382 170.141 11.1059C170.092 10.9736 170.016 10.8545 169.919 10.7572C169.821 10.66 169.704 10.5871 169.576 10.5439C169.448 10.5007 169.312 10.4883 169.179 10.5077H168.58V9.30343H169.119C169.249 9.31545 169.38 9.29916 169.504 9.25555C169.628 9.21195 169.742 9.14195 169.839 9.0499C169.926 8.95963 169.992 8.85029 170.033 8.72974C170.075 8.6092 170.09 8.48043 170.079 8.35271C170.08 8.22954 170.053 8.10789 170.001 7.99772C169.949 7.88755 169.873 7.792 169.779 7.7189C169.547 7.55987 169.277 7.47212 168.999 7.46538C168.681 7.44271 168.365 7.53185 168.1 7.7189C167.865 7.92691 167.715 8.22167 167.68 8.54286L166.24 8.28933C166.42 6.76819 167.38 6.00762 168.999 6.00762C169.72 5.95725 170.436 6.1576 171.039 6.57805C171.268 6.74967 171.453 6.97822 171.579 7.24351C171.704 7.50881 171.766 7.80268 171.759 8.09919C171.771 8.48777 171.65 8.86787 171.419 9.17031C171.187 9.47275 170.861 9.67743 170.499 9.74709C171.459 10.064 171.999 10.6344 171.999 11.5218C172.01 11.8615 171.945 12.1993 171.81 12.5077C171.674 12.816 171.472 13.0863 171.219 13.2964C170.594 13.7796 169.833 14.0253 169.059 13.9936C168.246 14.0437 167.442 13.7977 166.78 13.2964C166.534 13.0941 166.335 12.8343 166.2 12.5374C166.065 12.2405 165.996 11.9146 166 11.5851Z" fill="white"/>
            <path d="M178 7.56098H174.685V9.18699H177.27V10.6829H174.685V12.439H177.944V14H173V6H177.944V7.56098H178Z" fill="white"/>
            <path d="M180.714 13.2453V14H179V6.26415H180.714V9.53459C180.724 10.1014 180.704 10.6683 180.653 11.2327C180.885 10.6797 181.173 10.1528 181.51 9.66038L183.286 7.08176V6.26415H185V14H183.286V10.478C183.271 9.99491 183.292 9.5114 183.347 9.03145C183.135 9.59474 182.847 10.1242 182.49 10.6038L180.714 13.2453ZM179.551 4H180.408C180.413 4.10839 180.44 4.21454 180.487 4.31198C180.533 4.40942 180.599 4.4961 180.679 4.56672C180.759 4.63735 180.852 4.69045 180.953 4.72277C181.054 4.75509 181.16 4.76596 181.265 4.75472C181.375 4.77245 181.486 4.76656 181.593 4.73743C181.7 4.7083 181.8 4.65658 181.887 4.58556C181.973 4.51453 182.044 4.42577 182.095 4.32495C182.146 4.22413 182.177 4.11345 182.184 4H183.041C182.998 4.4521 182.803 4.87474 182.49 5.19497C182.325 5.34878 182.131 5.467 181.921 5.54262C181.711 5.61824 181.488 5.64973 181.265 5.63522C180.846 5.65561 180.434 5.52182 180.102 5.25786C179.776 4.92089 179.58 4.47397 179.551 4Z" fill="white"/>
            <path d="M78 21V29H76.1286V22.6115H73.9649V29H72.0936V22.6115H69.9298V29H68V21H78Z" fill="white"/>
            <path d="M84.2913 21L87 29H84.7953L84.2283 27.3309H81.3937L80.8268 29H79L81.8976 21H84.2913ZM81.9606 25.8921H83.7874L82.8425 23.0719L81.9606 25.8921Z" fill="white"/>
            <path d="M89.8329 26.0316V29H88V21.0081H91.0549C91.5831 20.9732 92.1126 21.051 92.6101 21.2365C92.9857 21.4163 93.3106 21.6913 93.5544 22.0357C93.8488 22.4494 94.0047 22.9502 93.9987 23.4628C94.011 23.8558 93.935 24.2465 93.7765 24.6045C93.6485 24.9554 93.4151 25.2553 93.11 25.4607C92.882 25.6502 92.6167 25.7865 92.3324 25.8603C91.9298 25.9404 91.5205 25.9787 91.1104 25.9745L89.8329 26.0316ZM89.7774 24.6045H90.9438C91.1162 24.6247 91.2907 24.6044 91.4543 24.545C91.6179 24.4857 91.7662 24.3889 91.8881 24.262C92.0597 24.054 92.1576 23.7924 92.1658 23.5199C92.172 23.3831 92.1506 23.2466 92.1028 23.1188C92.055 22.9911 91.9819 22.8749 91.8881 22.7778C91.6145 22.5741 91.2811 22.4733 90.9438 22.4923H89.7774V24.6045Z" fill="white"/>
            <path d="M98.248 21L101 29H98.76L98.184 27.3309H95.304L94.728 29H93L95.88 21H98.248ZM95.88 25.8921H97.736L96.776 23.0719L95.88 25.8921Z" fill="white"/>
            <path d="M109 24.0565L106.719 24.1675C106.719 23.0573 106.182 22.5577 105.175 22.5577C104.034 22.5577 103.43 23.3904 103.43 25.0557C103.43 25.9994 103.565 26.6655 103.9 26.9985C104.05 27.159 104.244 27.2879 104.465 27.3747C104.687 27.4615 104.93 27.5038 105.175 27.4981C106.047 27.4981 106.651 26.9986 106.853 26.0549L109 26.1659C108.972 26.5707 108.844 26.9665 108.625 27.3291C108.406 27.6918 108.1 28.0137 107.725 28.2753C107.016 28.7736 106.105 29.0314 105.175 28.9969C104.61 29.0123 104.047 28.9259 103.525 28.7438C103.004 28.5617 102.537 28.2882 102.156 27.9422C101.324 27.1229 100.915 26.0666 101.015 25.0002C100.98 23.9578 101.383 22.9377 102.156 22.1136C102.533 21.7457 103.008 21.4544 103.543 21.2619C104.078 21.0695 104.659 20.981 105.242 21.0034C107.457 21.0589 108.732 22.0581 109 24.0565Z" fill="white"/>
            <path d="M113.63 21L116 29H114.071L113.575 27.3309H111.094L110.598 29H109L111.48 21H113.63ZM111.535 25.8921H113.134L112.307 23.0719L111.535 25.8921Z" fill="white"/>
            <path d="M121 29V21H122.694V27.3885H124.653V21H126.347V27.3885H128.306V21H130V29H121Z" fill="white"/>
            <path d="M139 22.554H134.333V24.223H138.01V25.7194H134.333V27.446H139V29H132V21H139V22.554Z" fill="white"/>
            <path d="M140 21.009H143.391C143.853 20.9716 144.316 21.0507 144.747 21.2402C145.044 21.3906 145.297 21.6309 145.477 21.9336C145.638 22.1823 145.741 22.4713 145.776 22.7747C145.812 23.0782 145.779 23.3866 145.681 23.6727C145.583 23.9587 145.423 24.2134 145.214 24.4141C145.006 24.6147 144.755 24.7551 144.486 24.8228C144.713 24.8572 144.931 24.9413 145.128 25.0703C145.325 25.1993 145.497 25.3705 145.634 25.574C145.884 25.9159 146.014 26.3473 145.999 26.7874C145.996 27.081 145.939 27.3708 145.831 27.6391C145.724 27.9074 145.568 28.1485 145.373 28.3476C144.812 28.8382 144.101 29.0664 143.391 28.9832H140V21.009ZM141.721 22.4536V24.1872H143.025C143.495 24.1872 143.808 24.0716 143.912 23.8982C144.026 23.7289 144.098 23.5298 144.121 23.3204C144.128 23.2265 144.117 23.1321 144.09 23.0428C144.063 22.9535 144.021 22.8711 143.964 22.8003C143.889 22.6715 143.78 22.5709 143.651 22.5114C143.412 22.4504 143.166 22.4309 142.921 22.4536H141.721ZM141.721 25.6318V27.5386H143.025C143.353 27.5886 143.687 27.5066 143.964 27.3075C144.062 27.2173 144.137 27.1009 144.183 26.9694C144.229 26.838 144.243 26.6957 144.225 26.5563C144.207 26.3002 144.116 26.0572 143.964 25.8629C143.711 25.6479 143.395 25.5449 143.078 25.574H141.721V25.6318Z" fill="white"/>
            <path d="M151.843 29V25.8921C151.249 26.3544 150.478 26.6012 149.686 26.5827C149.159 26.5842 148.641 26.4653 148.182 26.2374C147.782 26.041 147.462 25.7391 147.267 25.3741C147.065 24.9163 146.976 24.4258 147.006 23.9353V21H149.097V24.0504C149.097 24.4532 149.163 24.741 149.359 24.8561C149.628 25.017 149.949 25.0976 150.274 25.0863C150.852 25.096 151.42 24.9559 151.908 24.6835V21H154V29H151.843Z" fill="white"/>
            <path d="M161 22.554H157.667V24.223H160.293V25.7194H157.667V27.446H161V29H156V21H161V22.554Z" fill="white"/>
            <path d="M169 21V29H166.907V25.7194H164.093V29H162V21H164.093V24.1079H166.907V21H169Z" fill="white"/>
            <path d="M172.655 21V24.741L174.931 21H176.534L174.828 23.8777L177 29H175.086L173.638 25.5468L172.655 27.1583V29H171V21H172.655Z" fill="white"/>
            <path d="M182.291 21L185 29H182.795L182.228 27.3309H179.394L178.827 29H177L179.835 21H182.291ZM179.898 25.8921H181.724L180.78 23.0719L179.898 25.8921Z" fill="white"/>
            <path d="M35.0141 25.1852L39.9859 22.3209V20.8188L35.0141 23.6832V25.1852ZM30.0071 14.4614L25 17.2908V18.8278L30.0071 15.9634V14.4614ZM25 43L50 28.7132V27.1763L25 41.498V43ZM35.0141 29.7262V31.2283L39.9859 28.3639V26.8619L35.0141 29.7262ZM39.9859 10.2348V8.73274L35.0141 11.5971V13.0991L39.9859 10.2348ZM35.0141 16.1381L39.9859 13.2738V11.7368L35.0141 14.6011V16.1381ZM25 39.961L50 25.6742V24.1722L25 38.459V39.961ZM35.0141 19.1422L39.9859 16.2778V14.7758L35.0141 17.6401V19.1422ZM30.0071 17.4655L25 20.3298V21.8318L30.0071 18.9675V17.4655ZM35.0141 22.1812L39.9859 19.3168V17.8148L35.0141 20.6442V22.1812ZM44.9929 16.4525L50 13.5881V12.0861L44.9929 14.9504V16.4525ZM44.9929 19.4565L50 16.6271V15.0902L44.9929 17.9545V19.4565ZM30.0071 11.4224L25 14.2868V15.7888L30.0071 12.9245V11.4224ZM44.9929 25.5345L50 22.6702V21.1332L44.9929 23.9976V25.5345ZM44.9929 22.4955L50 19.6312V18.1292L44.9929 20.9935V22.4955ZM30.0071 32.5906L25 35.4549V36.9569L30.0071 34.0926V32.5906ZM44.9929 10.4094L50 7.54509V6.04305L44.9929 8.90739V10.4094ZM44.9929 5.8684V7.37043L50 4.54102V3.00406L44.9929 5.8684ZM50 0L44.9929 2.86434V4.36637L50 1.50203V0ZM39.9859 5.69374L35.0141 8.55808V10.095L39.9859 7.23071V5.69374ZM35.0141 28.2242L39.9859 25.3599V23.8578L35.0141 26.6872V28.2242ZM44.9929 13.4135L50 10.5841V9.04712L44.9929 11.9115V13.4135ZM30.0071 26.5475L25 29.4119V30.9139L30.0071 28.0496V26.5475ZM30.0071 23.5085L25 26.3729V27.8749L30.0071 25.0106V23.5085ZM30.0071 20.5045L25 23.3339V24.8708L30.0071 22.0065V20.5045ZM30.0071 29.5516L25 32.4159V33.918L30.0071 31.0536V29.5516ZM0 28.7132L5.00705 31.5776V8.55808L10.0141 11.4224V34.407L15.0212 37.2713V14.2868L19.9929 17.1511V40.1357L25 43V14.2868L0 0V28.7132Z" fill="white"/>
        </symbol><!-- #svg-logo-title- END -->

        <symbol id="svg-facebook" viewBox="0 0 13 22" >
            <path d="M11 0H8C6.67392 0 5.40215 0.526784 4.46447 1.46447C3.52678 2.40215 3 3.67392 3 5V8H0V12H3V20H7V12H10L11 8H7V5C7 4.73478 7.10536 4.48043 7.29289 4.29289C7.48043 4.10536 7.73478 4 8 4H11V0Z" transform="translate(1 1)"  stroke-linecap="round" stroke-linejoin="round"/>
        </symbol><!-- #svg-facebook - END -->

        <symbol id="svg-twitter" viewBox="0 0 24 20" >
            <path d="M22 0.0100556C21.0424 0.685533 19.9821 1.20217 18.86 1.54006C18.2577 0.847566 17.4573 0.356748 16.567 0.133982C15.6767 -0.088784 14.7395 -0.0327487 13.8821 0.294509C13.0247 0.621767 12.2884 1.20446 11.773 1.96377C11.2575 2.72309 10.9877 3.62239 11 4.54006V5.54006C9.24263 5.58562 7.50127 5.19587 5.93101 4.4055C4.36074 3.61513 3.01032 2.44869 2 1.01006C2 1.01006 -2 10.0101 7 14.0101C4.94053 15.408 2.48716 16.109 0 16.0101C9 21.0101 20 16.0101 20 4.51006C19.9991 4.23151 19.9723 3.95365 19.92 3.68006C20.9406 2.67355 21.6608 1.40277 22 0.0100556V0.0100556Z" transform="translate(1 1)"   stroke-linecap="round" stroke-linejoin="round"/>
        </symbol><!-- #svg-twitter - END -->

        <symbol id="svg-instagram" viewBox="0 0 23 23" >
            <path d="M15 0H5C2.23858 0 0 2.23858 0 5V15C0 17.7614 2.23858 20 5 20H15C17.7614 20 20 17.7614 20 15V5C20 2.23858 17.7614 0 15 0Z" transform="translate(2 2)"   stroke-linecap="round" stroke-linejoin="round"/>
            <path d="M7.95674 3.41327C8.08015 4.24552 7.938 5.09549 7.5505 5.84229C7.163 6.58908 6.54988 7.19468 5.79836 7.57294C5.04684 7.9512 4.19519 8.08287 3.36452 7.9492C2.53386 7.81554 1.7665 7.42335 1.17158 6.82843C0.576655 6.23351 0.18447 5.46614 0.0508056 4.63548C-0.082859 3.80482 0.0488033 2.95316 0.427064 2.20164C0.805326 1.45012 1.41092 0.837011 2.15772 0.449512C2.90452 0.0620125 3.75449 -0.0801413 4.58674 0.0432703C5.43566 0.169155 6.22159 0.564734 6.82843 1.17158C7.43527 1.77842 7.83085 2.56435 7.95674 3.41327Z" transform="translate(8.04346 7.95654)"   stroke-linecap="round" stroke-linejoin="round"/>
        </symbol><!-- #svg-instagram - END -->

        <symbol id="svg-map-pin" viewBox="0 0 20 24" >
            <path d="M18 9C18 16 9 22 9 22C9 22 0 16 0 9C3.55683e-08 6.61305 0.948211 4.32387 2.63604 2.63604C4.32387 0.948211 6.61305 -1.49012e-08 9 -1.49012e-08C11.3869 -1.49012e-08 13.6761 0.948211 15.364 2.63604C17.0518 4.32387 18 6.61305 18 9Z" transform="translate(1 1)"   stroke-linecap="round" stroke-linejoin="round"/>
            <path d="M3 6C4.65685 6 6 4.65685 6 3C6 1.34315 4.65685 0 3 0C1.34315 0 0 1.34315 0 3C0 4.65685 1.34315 6 3 6Z" transform="translate(7 7)"   stroke-linecap="round" stroke-linejoin="round"/>
        </symbol><!-- #svg-map-pin - END -->

        <symbol id="svg-clock" viewBox="0 0 22 22" >
            <path d="M10 20C15.5228 20 20 15.5228 20 10C20 4.47715 15.5228 0 10 0C4.47715 0 0 4.47715 0 10C0 15.5228 4.47715 20 10 20Z" transform="translate(1 1)"   stroke-linecap="round" stroke-linejoin="round"/>
            <path d="M0 0V6L4 8" transform="translate(11 5)"  stroke-linecap="round" stroke-linejoin="round"/>
        </symbol><!-- #svg-clock - END -->

        <symbol id="svg-phone" viewBox="0 0 22 22" >
            <path d="M19.8881 14.9201V17.9201C19.8892 18.1986 19.8322 18.4743 19.7206 18.7294C19.6091 18.9846 19.4454 19.2137 19.2402 19.402C19.035 19.5902 18.7927 19.7336 18.5289 19.8228C18.265 19.912 17.9855 19.9452 17.7081 19.9201C14.631 19.5857 11.6751 18.5342 9.07812 16.8501C6.66194 15.3148 4.61345 13.2663 3.07812 10.8501C1.38809 8.2413 0.33636 5.27109 0.00811662 2.1801C-0.0168729 1.90356 0.0159915 1.62486 0.104617 1.36172C0.193242 1.09859 0.335687 0.856786 0.522883 0.651718C0.710078 0.44665 0.937921 0.282806 1.19191 0.170619C1.44589 0.0584315 1.72046 0.000358432 1.99812 9.69523e-05H4.99812C5.48342 -0.00467949 5.95391 0.167176 6.32188 0.48363C6.68985 0.800084 6.93019 1.23954 6.99812 1.7201C7.12474 2.68016 7.35957 3.62282 7.69812 4.5301C7.83266 4.88802 7.86178 5.27701 7.78202 5.65098C7.70227 6.02494 7.51698 6.36821 7.24812 6.6401L5.97812 7.9101C7.40167 10.4136 9.47457 12.4865 11.9781 13.9101L13.2481 12.6401C13.52 12.3712 13.8633 12.1859 14.2372 12.1062C14.6112 12.0264 15.0002 12.0556 15.3581 12.1901C16.2654 12.5286 17.2081 12.7635 18.1681 12.8901C18.6539 12.9586 19.0975 13.2033 19.4146 13.5776C19.7318 13.9519 19.9003 14.4297 19.8881 14.9201Z" transform="translate(1 1)"   stroke-linecap="round" stroke-linejoin="round"/>
        </symbol><!-- #svg-phone - END -->

        <symbol id="svg-search" viewBox="0 0 20 20" >
            <path d="M9 17C13.4183 17 17 13.4183 17 9C17 4.58172 13.4183 1 9 1C4.58172 1 1 4.58172 1 9C1 13.4183 4.58172 17 9 17Z" stroke-width="2" stroke-linecap="round" stroke-linejoin="round"/>
            <path d="M18.9999 18.9999L14.6499 14.6499" stroke-width="2" stroke-linecap="round" stroke-linejoin="round"/>
        </symbol><!-- #svg-search - END -->

        <symbol id="svg-close" viewBox="0 0 14 14" >
            <path d="M13 1L1 13" stroke-width="2" stroke-linecap="round" stroke-linejoin="round"/>
            <path d="M1 1L13 13" stroke-width="2" stroke-linecap="round" stroke-linejoin="round"/>
        </symbol><!-- #svg-close - END -->

        <symbol id="svg-wheelchair" viewBox="0 0 21 24">
            <path d="M14.1 15H13.35C13.5 15.45 13.5 16.05 13.5 16.5C13.5 19.8 10.8 22.5 7.5 22.5C4.2 22.5 1.5 19.8 1.5 16.5C1.5 13.35 3.9 10.8 7.05 10.5L6.75 9C2.85 9.6 0 12.6 0 16.5C0 20.7 3.3 24 7.5 24C11.1 24 14.1 21.45 14.85 18.15L14.1 15Z" />
            <path d="M18.15 19.5L16.5 12H10.35L10.05 10.5H15V9H9.75L8.85 5.25C10.2 5.1 11.25 4.05 11.25 2.7C11.25 1.2 10.05 0 8.55 0C7.05 0 6 1.2 6 2.7C6 3.6 6.45 4.5 7.2 4.95L9.15 13.5H15.3L17.1 21H21V19.5H18.15Z"/>
        </symbol><!-- #svg-wheelchair - END -->

        <symbol id="svg-ear" viewBox="0 0 38 38" fill="none" >
            <path d="M25.0184 0C25.0161 0 25.0139 0 25.0116 0C21.5436 0 18.2828 1.35541 15.8298 3.81691C13.3753 6.27991 12.0234 9.55514 12.0234 13.0392V19.0745H14.25V13.0392C14.25 10.1524 15.37 7.43869 17.4039 5.39786C19.4365 3.35823 22.1379 2.23529 25.0116 2.23529C25.0134 2.23529 25.0155 2.23529 25.0172 2.23529C30.9482 2.23827 35.7734 7.1361 35.7734 13.1533C35.7734 19.2197 33.4203 24.9229 29.1476 29.2125L23.8935 34.4872C23.0728 35.311 21.9818 35.7647 20.8213 35.7647C18.4256 35.7647 16.4766 33.808 16.4766 31.403V29.5059H14.25V31.403C14.25 35.0406 17.1979 38 20.8213 38C22.5765 38 24.2267 37.3138 25.4678 36.0677L30.7219 30.793C33.041 28.4648 34.8533 25.7419 36.1085 22.6999C37.3636 19.6579 38 16.446 38 13.1533C38 5.90416 32.1764 0.00357647 25.0184 0Z" fill="white"/>
            <path d="M25.0117 5.58838C23.03 5.58838 21.1666 6.36298 19.7649 7.76943C18.3622 9.17692 17.5898 11.0485 17.5898 13.0394H17.5913C17.591 13.0578 17.5898 13.076 17.5898 13.0946V15.1311C17.5898 16.6754 18.1889 18.1272 19.2765 19.2191C19.6247 19.5687 19.8164 20.0334 19.8164 20.5276C19.8164 21.0218 19.6247 21.4865 19.2766 21.8361C18.476 22.6397 18.0352 23.7083 18.0352 24.8448V25.408C18.0352 27.339 19.6 28.9099 21.5234 28.9099H21.5977C23.5211 28.9099 25.0859 27.339 25.0859 25.408H22.8594C22.8594 26.1064 22.2934 26.6747 21.5977 26.6747H21.5234C20.8277 26.6747 20.2617 26.1064 20.2617 25.408V24.8448C20.2617 24.3053 20.4709 23.7981 20.851 23.4166C21.6197 22.6449 22.043 21.6189 22.043 20.5276C22.043 19.4363 21.6197 18.4103 20.8509 17.6386C20.1838 16.9688 19.8164 16.0783 19.8164 15.1311V13.0946C19.8164 11.852 20.798 10.8246 22.0044 10.8044C22.0173 10.8042 22.0301 10.8041 22.0428 10.8041C22.6311 10.8041 23.1842 11.031 23.604 11.4456C24.0331 11.8692 24.2695 12.4352 24.2695 13.0394H26.4961C26.4961 11.8311 26.0235 10.6991 25.1653 9.85175C24.3911 9.08743 23.39 8.64224 22.3179 8.57801C23.1221 8.08677 24.0474 7.82367 25.0145 7.82367C27.8777 7.82516 30.207 10.216 30.207 13.1534C30.207 15.5358 29.7337 17.8353 28.8002 19.9879L30.8417 20.8802C31.898 18.4444 32.4336 15.8447 32.4336 13.1534C32.4336 8.98409 29.1059 5.59047 25.0117 5.58838Z" fill="white"/>
            <path d="M1.48438 28.7607C2.30417 28.7607 2.96875 28.0935 2.96875 27.2705C2.96875 26.4475 2.30417 25.7803 1.48438 25.7803C0.664577 25.7803 0 26.4475 0 27.2705C0 28.0935 0.664577 28.7607 1.48438 28.7607Z" fill="white"/>
            <path d="M5.6828 23.0557L4.1084 24.6362C5.55522 26.0888 5.55522 28.4523 4.1084 29.9049L5.6828 31.4855C7.99783 29.1613 7.99783 25.3798 5.6828 23.0557Z" fill="white"/>
            <path d="M8.83173 19.8945L7.25732 21.4751C10.4405 24.6708 10.4405 29.8704 7.25732 33.0661L8.83173 34.6467C12.883 30.5795 12.883 23.9617 8.83173 19.8945Z" fill="white"/>
        </symbol><!-- #svg-ear - END -->

        <symbol id="svg-glasses" viewBox="0 0 38 31" fill="none" >
            <path d="M37.4389 19.2235L32.4065 3.14797C31.6976 0.804438 29.2204 -0.520167 26.8912 0.193082C26.3381 0.365516 26.0187 0.953358 26.1901 1.50985C26.3615 2.06634 26.9457 2.38769 27.4988 2.21526C28.7219 1.83904 30.015 2.53661 30.3889 3.76716V3.775L33.9879 15.2889C32.8428 14.6383 31.5263 14.2699 30.1241 14.2699C26.0888 14.2699 22.7547 17.3424 22.3029 21.277H15.6813C15.1672 17.4051 11.8642 14.411 7.87572 14.411C6.46573 14.411 5.14142 14.7872 3.99629 15.4378L7.64202 3.775V3.76716C8.01594 2.53661 9.30909 1.83904 10.5321 2.21526C11.0852 2.38769 11.6773 2.06634 11.8409 1.50985C12.0122 0.953358 11.6928 0.357678 11.1397 0.193082C8.81053 -0.520167 6.34109 0.804438 5.6244 3.14797L0.607623 19.2392C0.592043 19.2862 0.584253 19.3254 0.576463 19.3724C0.210331 20.2895 0 21.2927 0 22.3351C0 26.7009 3.53667 30.2593 7.87572 30.2593C11.8642 30.2593 15.1672 27.2652 15.6813 23.3933H22.3418C22.9183 27.1946 26.1901 30.1182 30.1241 30.1182C34.4631 30.1182 37.9998 26.5598 37.9998 22.1941C38.0076 21.1438 37.805 20.1405 37.4389 19.2235ZM7.88351 28.143C4.69739 28.143 2.1111 25.5408 2.1111 22.3351C2.1111 19.1294 4.69739 16.5273 7.88351 16.5273C11.0696 16.5273 13.6559 19.1294 13.6559 22.3351C13.6559 25.5408 11.0618 28.143 7.88351 28.143ZM30.1318 28.0019C26.9457 28.0019 24.3594 25.3998 24.3594 22.1941C24.3594 18.9884 26.9535 16.3862 30.1318 16.3862C33.3102 16.3862 35.9043 18.9884 35.9043 22.1941C35.9043 25.3998 33.318 28.0019 30.1318 28.0019Z" fill="white"/>
        </symbol><!-- #svg-glasses - END -->

        <symbol id="svg-braille" viewBox="0 0 25 35" fill="none" >
            <path d="M23.1481 0H1.85181C0.830523 0 0 0.845559 0 1.88551V33.1144C0 34.1544 0.830523 35 1.85181 35H23.1481C24.1695 35 25 34.1544 25 33.1144V1.88551C25 0.846026 24.1695 0 23.1481 0ZM24.0741 33.1149C24.0741 33.6351 23.659 34.0576 23.1482 34.0576H1.85181C1.34117 34.0576 0.925906 33.635 0.925906 33.1149V1.88551C0.925906 1.36557 1.34117 0.942755 1.85181 0.942755H23.1481C23.659 0.942755 24.074 1.36557 24.074 1.88551V33.1149H24.0741ZM6.13423 12.0793C6.13423 11.2332 6.80788 10.5473 7.63886 10.5473C8.46984 10.5473 9.14349 11.2332 9.14349 12.0793C9.14349 12.9253 8.46984 13.6113 7.63886 13.6113C6.80788 13.6113 6.13423 12.9254 6.13423 12.0793ZM7.63886 8.42599C7.63886 7.57989 8.3125 6.89399 9.14349 6.89399C9.97447 6.89399 10.6481 7.57989 10.6481 8.42599C10.6481 9.2721 9.97447 9.958 9.14349 9.958C8.3125 9.958 7.63886 9.2721 7.63886 8.42599ZM11.6897 5.59773C11.6897 4.75163 12.3634 4.06572 13.1944 4.06572C14.0254 4.06572 14.699 4.75163 14.699 5.59773C14.699 6.44383 14.0254 7.12973 13.1944 7.12973C12.3635 7.12973 11.6897 6.44376 11.6897 5.59773ZM16.9176 7.12973C16.0866 7.12973 15.413 6.44376 15.413 5.59773C15.413 4.7517 16.0866 4.06572 16.9176 4.06572C17.7486 4.06572 18.4222 4.75163 18.4222 5.59773C18.4222 6.44383 17.7486 7.12973 16.9176 7.12973ZM11.6897 14.111C11.6897 13.2649 12.3634 12.579 13.1944 12.579C14.0254 12.579 14.699 13.2649 14.699 14.111C14.699 14.9571 14.0254 15.643 13.1944 15.643C12.3635 15.643 11.6897 14.9566 11.6897 14.111ZM11.6897 19.3858C11.6897 18.5397 12.3634 17.8537 13.1944 17.8537C14.0254 17.8537 14.699 18.5397 14.699 19.3858C14.699 20.2318 14.0254 20.9178 13.1944 20.9178C12.3635 20.9178 11.6897 20.2318 11.6897 19.3858ZM9.14349 20.9178C8.3125 20.9178 7.63886 20.2318 7.63886 19.3858C7.63886 18.5397 8.3125 17.8537 9.14349 17.8537C9.97447 17.8537 10.6481 18.5397 10.6481 19.3858C10.6481 20.2318 9.97447 20.9178 9.14349 20.9178ZM7.63886 23.6283C7.63886 24.4744 6.96522 25.1603 6.13423 25.1603C5.30325 25.1603 4.62961 24.4744 4.62961 23.6283C4.62961 22.7822 5.30325 22.0963 6.13423 22.0963C6.96522 22.0963 7.63886 22.7821 7.63886 23.6283ZM7.63886 28.6957C7.63886 29.5418 6.96522 30.2277 6.13423 30.2277C5.30325 30.2277 4.62961 29.5418 4.62961 28.6957C4.62961 27.8496 5.30325 27.1636 6.13423 27.1636C6.96522 27.1636 7.63886 27.8496 7.63886 28.6957ZM12.1527 28.6957C12.1527 29.5418 11.4791 30.2277 10.6481 30.2277C9.81713 30.2277 9.14349 29.5418 9.14349 28.6957C9.14349 27.8496 9.81713 27.1636 10.6481 27.1636C11.4791 27.1636 12.1527 27.8496 12.1527 28.6957ZM16.2037 28.6957C16.2037 29.5418 15.53 30.2277 14.699 30.2277C13.8681 30.2277 13.1944 29.5418 13.1944 28.6957C13.1944 27.8496 13.8681 27.1636 14.699 27.1636C15.53 27.1636 16.2037 27.8496 16.2037 28.6957ZM20.3898 28.6957C20.3898 29.5418 19.7161 30.2277 18.8852 30.2277C18.0542 30.2277 17.3806 29.5418 17.3806 28.6957C17.3806 27.8496 18.0542 27.1636 18.8852 27.1636C19.7161 27.1636 20.3898 27.8496 20.3898 28.6957Z" fill="white"/>
        </symbol><!-- #svg-braille - END -->

        <symbol id="svg-headphones" viewBox="0 0 25 25" >
            <path d="M21 12.45V9C21 4.05 16.95 0 12 0C7.05 0 3 4.05 3 9V12.45C1.2 13.2 0 15 0 17.1V18.9C0 21.6 1.95 23.7 4.5 24H7.5V12H6V9C6 5.7 8.7 3 12 3C15.3 3 18 5.7 18 9V12H16.5V24H19.5C22.05 23.7 24 21.45 24 18.9V17.1C24 15 22.8 13.2 21 12.45ZM6 22.5H4.5V13.5H6V22.5ZM19.5 22.5H18V13.5H19.5V22.5Z" />
        </symbol><!-- #svg-headphones - END -->

        <symbol id="svg-envelope" width="100%" height="100%" viewBox="0 0 24 24" >
			<path d="M4 4H20C21.1 4 22 4.9 22 6V18C22 19.1 21.1 20 20 20H4C2.9 20 2 19.1 2 18V6C2 4.9 2.9 4 4 4Z" stroke="#7AB317" stroke-width="2" stroke-linecap="round" stroke-linejoin="round"/>
			<path d="M22 6L12 13L2 6" stroke="#7AB317" stroke-width="2" stroke-linecap="round" stroke-linejoin="round"/>
        </symbol><!-- #svg-envelope - END -->

        <symbol id="svg-pdf-file" width="28" height="29" viewBox="0 0 28 29" fill="none">
            <path d="M8.5913 15.6833C8.48696 16.0012 8.48696 16.0012 8.27826 16.5311L8.24348 16.6017C8 17.2728 7.58261 18.0853 7.30435 18.6151C6.88696 18.827 6.46957 19.039 5.87826 19.3922C4.62609 20.134 3.75652 20.6638 3.44348 21.5116C3.26957 21.9708 2.85217 23.1011 3.75652 23.8429C4.06957 24.1255 4.48696 24.2667 4.86957 24.2667C5.28696 24.2667 5.66957 24.1255 5.98261 23.8429C6.4 23.4543 6.57391 23.1011 6.92174 22.43C7.02609 22.2533 7.13043 22.0414 7.26957 21.7588C7.82609 20.6638 8.17391 19.922 8.24348 19.8161C8.24348 19.7808 8.27826 19.7454 8.31304 19.7101C8.55652 19.6041 8.83478 19.4982 9.14783 19.3569C10.2957 18.8624 10.7826 18.7211 11.8261 18.3678L12.313 18.1912C12.6957 18.0499 12.9739 17.9793 13.2522 17.8733C13.6 17.732 13.8783 17.6614 14.1565 17.5554C14.4 17.7674 14.6435 18.0146 14.9565 18.2619C15.6174 18.827 16.0696 19.1096 16.5565 19.2509C16.9739 19.3569 17.5652 19.3216 17.9478 19.2156C19.1652 18.8977 19.2 17.9793 19.2348 17.5907C19.2696 17.0609 18.9565 16.1425 17.6 15.8952C16.9739 15.7893 16.5565 15.7893 16.1739 15.7893C15.7913 15.7893 15.4783 15.8246 14.9913 15.8952C14.8522 15.9306 14.6783 15.9659 14.5739 15.9659C14.2261 15.6127 13.9826 15.2594 13.6 14.7296C12.8696 13.6699 12.4174 12.9281 11.687 11.6212C11.5826 11.4446 11.4783 11.2326 11.3739 11.056C11.4435 10.7381 11.513 10.3849 11.5826 9.96102L11.687 9.4665C11.9652 8.12424 12.0348 7.66504 11.8261 6.57004C11.5826 5.36906 10.7826 5.08648 10.3652 5.1218C10.1565 5.1218 9.32174 5.26309 8.97391 6.49939C8.73043 7.34714 8.76522 7.98295 8.97391 8.86602C9.11304 9.50183 9.42609 10.2789 9.94783 11.2326C9.77391 11.9744 9.56522 12.6456 9.18261 13.7759C8.83478 14.9415 8.66087 15.4007 8.5913 15.6833ZM6.05217 21.0524C5.91304 21.2996 5.8087 21.5469 5.70435 21.7235C5.35652 22.3946 5.28696 22.5359 5.07826 22.7479C4.93913 22.8538 4.76522 22.7832 4.66087 22.7125C4.62609 22.6772 4.52174 22.6066 4.76522 21.9708C4.90435 21.6175 5.56522 21.1937 6.15652 20.8051C6.15652 20.9111 6.08696 20.9817 6.05217 21.0524ZM16.2435 17.1669C16.5913 17.1669 16.9391 17.1669 17.4261 17.2728C17.7739 17.3435 17.8783 17.4848 17.8783 17.5201C17.8783 17.5907 17.8783 17.732 17.8783 17.7674C17.8783 17.7674 17.8435 17.8027 17.6696 17.838C17.4261 17.9086 17.0783 17.9086 16.9739 17.8733C16.8 17.8027 16.5217 17.6967 15.9304 17.2022C16.0348 17.1669 16.1391 17.1669 16.2435 17.1669ZM10.3652 6.85262C10.4 6.74665 10.4348 6.64068 10.4696 6.60536C10.5043 6.64068 10.5043 6.71133 10.5391 6.8173C10.6783 7.5944 10.6783 7.84166 10.4696 8.86602C10.4348 8.76005 10.4 8.65408 10.4 8.58343C10.2261 7.80633 10.1913 7.41778 10.3652 6.85262ZM9.56522 17.0962L9.6 17.0256C9.8087 16.4604 9.8087 16.4604 9.94783 16.1072C10.0174 15.8599 10.1913 15.3654 10.5739 14.2351C10.7478 13.7759 10.8522 13.352 10.9565 12.9988C11.4783 13.9172 11.8957 14.6236 12.5217 15.5067C12.7652 15.8246 12.9391 16.1072 13.1478 16.3544C13.0435 16.3898 12.9391 16.4251 12.8348 16.4604C12.5913 16.5664 12.313 16.637 11.9304 16.7783L11.4435 16.9549C10.5739 17.2375 10.087 17.4141 9.28696 17.732C9.3913 17.5201 9.46087 17.3082 9.56522 17.0962ZM21.5652 17.0256V20.4166H17.0783C15.7565 20.4166 14.6435 21.5469 14.6435 22.8892V27.5518H4.13913C2.6087 27.5518 1.3913 26.2801 1.3913 24.6906V4.27406C1.3913 2.71985 2.64348 1.41291 4.13913 1.41291H18.8174C20.1391 1.41291 21.2522 2.40195 21.5304 3.70889C21.7739 3.67357 22.0522 3.67357 22.2957 3.67357C22.5043 3.67357 22.713 3.67357 22.9217 3.70889C22.6435 1.62485 20.9043 0 18.7826 0H4.13913C1.84348 0 0 1.90743 0 4.27406V24.7259C0 27.0926 1.84348 29 4.13913 29H15.3391C15.3739 29 15.4435 29 15.4783 29C15.513 29 15.513 29 15.5478 28.9647C15.5826 28.9647 15.5826 28.9647 15.6174 28.9294C15.6522 28.9294 15.6522 28.894 15.687 28.894C15.687 28.894 15.7217 28.894 15.7217 28.8587C15.7565 28.8234 15.7913 28.7881 15.8261 28.7527L22.713 21.6529C22.713 21.6529 22.713 21.6175 22.7478 21.6175C22.7826 21.5822 22.7826 21.5822 22.8174 21.5469C22.8174 21.5116 22.8522 21.5116 22.8522 21.4762C22.8522 21.4409 22.887 21.4409 22.887 21.4056C22.887 21.3703 22.887 21.3703 22.9217 21.335C22.9217 21.2996 22.9217 21.2996 22.9217 21.2643C22.9217 21.229 22.9217 21.1583 22.9217 21.123V17.0256C22.713 17.0609 22.4696 17.0609 22.2609 17.0609C22.0174 17.0609 21.7739 17.0609 21.5652 17.0256ZM16.0348 26.5274V22.9245C16.0348 22.324 16.487 21.8648 17.0783 21.8648H20.5913L16.0348 26.5274ZM22.2609 4.52132C19.0957 4.52132 16.5217 7.1352 16.5217 10.3496C16.5217 13.5639 19.0957 16.1778 22.2609 16.1778C25.4261 16.1778 28 13.5639 28 10.3496C28 7.1352 25.4261 4.52132 22.2609 4.52132ZM22.2609 15.1181C19.687 15.1181 17.5652 12.9635 17.5652 10.3496C17.5652 7.73569 19.687 5.581 22.2609 5.581C24.8348 5.581 26.9565 7.73569 26.9565 10.3496C26.9565 12.9635 24.8696 15.1181 22.2609 15.1181ZM24.3826 10.8794C24.487 10.9854 24.5217 11.1267 24.5217 11.268C24.5217 11.4093 24.487 11.5505 24.3826 11.6565L22.6435 13.4227C22.5391 13.5286 22.4348 13.5639 22.2957 13.5639H22.2609C22.2261 13.5639 22.2261 13.5639 22.1913 13.5639C22.087 13.5639 21.9826 13.4933 21.913 13.4227L21.8783 13.3873L20.1391 11.6212C19.9304 11.4093 19.9304 11.0914 20.1391 10.8794C20.3478 10.6675 20.6609 10.6675 20.8696 10.8794L21.7043 11.7272V7.70037C21.7043 7.41778 21.9478 7.17052 22.2261 7.17052C22.5043 7.17052 22.7826 7.41778 22.7826 7.70037V11.7272L23.6174 10.8794C23.8609 10.6675 24.1739 10.6675 24.3826 10.8794Z" fill="#7AB317"/>
        </symbol><!-- #svg-headphones - END -->
		
        <symbol id="svg-car-parking" width="100%" height="100%" viewBox="0 0 50 43" fill="none" >
			<path d="M48.0698 1H34.9298C34.3279 1 33.8398 1.48801 33.8398 2.09V15.23C33.8398 15.832 34.3279 16.32 34.9298 16.32H48.0698C48.6718 16.32 49.1598 15.832 49.1598 15.23V2.09C49.1598 1.48801 48.6718 1 48.0698 1Z" stroke="#7AB317" stroke-width="1.5" stroke-linecap="round" stroke-linejoin="round"/>
			<path d="M39.3105 4.83008V13.0401" stroke="#7AB317" stroke-width="1.5" stroke-linecap="round" stroke-linejoin="round"/>
			<path d="M39.3105 4.83008H41.6605C41.9692 4.83008 42.2747 4.89086 42.5599 5.00896C42.845 5.12706 43.104 5.30016 43.3222 5.51838C43.5405 5.73659 43.7136 5.99566 43.8317 6.28077C43.9498 6.56589 44.0105 6.87147 44.0105 7.18008V7.18008C44.0079 7.8016 43.7591 8.39677 43.3187 8.83532C42.8783 9.27387 42.2821 9.52008 41.6605 9.52008H39.3105V4.83008Z" stroke="#7AB317" stroke-width="1.5" stroke-linecap="round" stroke-linejoin="round"/>
			<path d="M41.5 16.3198V40.9498" stroke="#7AB317" stroke-width="1.5" stroke-linecap="round" stroke-linejoin="round"/>
			<path d="M37.1201 41.5H45.8801" stroke="#7AB317" stroke-width="1.5" stroke-linecap="round" stroke-linejoin="round"/>
			<path d="M5.09012 25.1999L2.99012 27.2999C2.43588 27.8587 2.12343 28.6129 2.12012 29.3999V34.8399C2.12012 35.6356 2.43619 36.3987 2.9988 36.9613C3.56141 37.5239 4.32447 37.8399 5.12012 37.8399H30.3201C31.1158 37.8399 31.8788 37.5239 32.4414 36.9613C33.004 36.3987 33.3201 35.6356 33.3201 34.8399V29.3899C33.3168 28.6029 33.0044 27.8487 32.4501 27.2899L30.3501 25.1899L5.09012 25.1999Z" stroke="#7AB317" stroke-width="1.5" stroke-linecap="round" stroke-linejoin="round"/>
			<path d="M30.2898 25.2L28.5698 20C28.4226 19.5569 28.1395 19.1716 27.7607 18.8987C27.3819 18.6258 26.9267 18.4793 26.4598 18.48H8.91984C8.45299 18.4793 7.99779 18.6258 7.61899 18.8987C7.24018 19.1716 6.95705 19.5569 6.80984 20L5.08984 25.2H30.2898Z" stroke="#7AB317" stroke-width="1.5" stroke-linecap="round" stroke-linejoin="round"/>
			<path d="M2.12988 35.23V40.76C2.12988 40.9562 2.20785 41.1445 2.34662 41.2832C2.4854 41.422 2.67362 41.5 2.86988 41.5H5.08988C5.28614 41.5 5.47437 41.422 5.61314 41.2832C5.75192 41.1445 5.82988 40.9562 5.82988 40.76V38.26" stroke="#7AB317" stroke-width="1.5" stroke-linecap="round" stroke-linejoin="round"/>
			<path d="M33.2498 35.23V40.76C33.2498 40.9562 33.1718 41.1445 33.0331 41.2832C32.8943 41.422 32.7061 41.5 32.5098 41.5H30.2898C30.0935 41.5 29.9053 41.422 29.7665 41.2832C29.6278 41.1445 29.5498 40.9562 29.5498 40.76V38.26" stroke="#7AB317" stroke-width="1.5" stroke-linecap="round" stroke-linejoin="round"/>
			<path d="M6.9302 32.6001C7.74758 32.6001 8.4102 31.9375 8.4102 31.1201C8.4102 30.3028 7.74758 29.6401 6.9302 29.6401C6.11281 29.6401 5.4502 30.3028 5.4502 31.1201C5.4502 31.9375 6.11281 32.6001 6.9302 32.6001Z" stroke="#7AB317" stroke-width="1.5" stroke-linecap="round" stroke-linejoin="round"/>
			<path d="M28.4497 32.6001C29.2671 32.6001 29.9297 31.9375 29.9297 31.1201C29.9297 30.3028 29.2671 29.6401 28.4497 29.6401C27.6323 29.6401 26.9697 30.3028 26.9697 31.1201C26.9697 31.9375 27.6323 32.6001 28.4497 32.6001Z" stroke="#7AB317" stroke-width="1.5" stroke-linecap="round" stroke-linejoin="round"/>
			<path d="M3.23 22.23H2.48C1.66262 22.23 1 22.8926 1 23.71C1 24.5274 1.66262 25.19 2.48 25.19H3.23C4.04738 25.19 4.71 24.5274 4.71 23.71C4.71 22.8926 4.04738 22.23 3.23 22.23Z" stroke="#7AB317" stroke-width="1.5" stroke-linecap="round" stroke-linejoin="round"/>
			<path d="M32.7798 22.23H32.0298C31.2124 22.23 30.5498 22.8926 30.5498 23.71C30.5498 24.5274 31.2124 25.19 32.0298 25.19H32.7798C33.5972 25.19 34.2598 24.5274 34.2598 23.71C34.2598 22.8926 33.5972 22.23 32.7798 22.23Z" stroke="#7AB317" stroke-width="1.5" stroke-linecap="round" stroke-linejoin="round"/>
			<path d="M13.04 30.5498H22.89" stroke="#7AB317" stroke-width="1.5" stroke-linecap="round" stroke-linejoin="round"/>
			<path d="M13.04 32.7402H22.89" stroke="#7AB317" stroke-width="1.5" stroke-linecap="round" stroke-linejoin="round"/>
        </symbol><!-- #svg-car-parking - END -->
		
        <symbol id="svg-walk" width="100%" height="100%" viewBox="0 0 28 41" fill="none" >
			<path d="M13.783 9.82C16.2186 9.82 18.193 7.84558 18.193 5.41C18.193 2.97442 16.2186 1 13.783 1C11.3475 1 9.37305 2.97442 9.37305 5.41C9.37305 7.84558 11.3475 9.82 13.783 9.82Z" stroke="white" stroke-width="1.5" stroke-linecap="round" stroke-linejoin="round"/>
			<path d="M17.1035 11.9199L25.6035 16.6699C25.9831 16.8896 26.2604 17.2506 26.3747 17.6741C26.489 18.0976 26.431 18.549 26.2135 18.9299V18.9299C25.9938 19.3095 25.6328 19.5868 25.2093 19.7011C24.7859 19.8154 24.3344 19.7574 23.9535 19.5399L17.1035 15.7399" stroke="white" stroke-width="1.5" stroke-linecap="round" stroke-linejoin="round"/>
			<path d="M23.8637 36.1898L20.9637 29.0898L17.4437 25.4398C17.3185 25.3364 17.2176 25.2066 17.1484 25.0597C17.0793 24.9127 17.0435 24.7522 17.0437 24.5898V13.1398C17.0452 12.5295 16.8773 11.9307 16.5588 11.41C16.2404 10.8894 15.7837 10.4673 15.2397 10.1906C14.6957 9.9139 14.0856 9.79352 13.4772 9.84281C12.8689 9.89211 12.2861 10.1091 11.7937 10.4698L3.44375 14.3698L1.14375 20.5198C1.05115 20.7276 1.00225 20.9522 1.00008 21.1796C0.997902 21.4071 1.0425 21.6326 1.13111 21.8421C1.21972 22.0516 1.35044 22.2407 1.51517 22.3976C1.67989 22.5545 1.8751 22.6758 2.08869 22.7541C2.30227 22.8324 2.52966 22.8659 2.75675 22.8527C2.98384 22.8394 3.20579 22.7796 3.40881 22.677C3.61183 22.5744 3.79159 22.4312 3.93694 22.2562C4.08229 22.0812 4.19012 21.8782 4.25375 21.6598L6.04375 16.7998L10.4837 14.7998V24.3198C10.484 24.6445 10.5558 24.9652 10.6941 25.2591C10.8324 25.5529 11.0337 25.8126 11.2837 26.0198L17.2837 31.7098L19.8237 37.9998C19.9495 38.2936 20.1375 38.5567 20.3748 38.7708C20.6121 38.9849 20.893 39.1451 21.1981 39.2401C21.5033 39.3352 21.8254 39.3629 22.1423 39.3214C22.4592 39.2799 22.7634 39.1702 23.0337 38.9998C23.4787 38.7023 23.8053 38.2583 23.957 37.7449C24.1086 37.2316 24.0756 36.6813 23.8637 36.1898V36.1898Z" stroke="white" stroke-width="1.5" stroke-linecap="round" stroke-linejoin="round"/>
			<path d="M4.89327 35.8001C4.71795 36.0332 4.59027 36.2985 4.5175 36.581C4.44473 36.8634 4.42831 37.1574 4.46917 37.4462C4.51002 37.735 4.60736 38.0129 4.75562 38.2641C4.90389 38.5153 5.10017 38.7348 5.33327 38.9101C5.56636 39.0854 5.83171 39.2131 6.11415 39.2859C6.39659 39.3586 6.6906 39.3751 6.97939 39.3342C7.26818 39.2933 7.5461 39.196 7.79727 39.0477C8.04844 38.8995 8.26795 38.7032 8.44327 38.4701L15.1233 29.6601L11.9033 26.6001L4.89327 35.8001Z" stroke="white" stroke-width="1.5" stroke-linecap="round" stroke-linejoin="round"/>
        </symbol><!-- #svg-walk - END -->
		
        <symbol id="svg-car" width="100%" height="100%" viewBox="0 0 50 33" fill="none" >
			<path d="M8 10L5.17 12.83C4.79866 13.2018 4.50421 13.643 4.30346 14.1286C4.1027 14.6142 3.99959 15.1346 4 15.66V23C4 24.0609 4.42143 25.0783 5.17157 25.8284C5.92172 26.5786 6.93914 27 8 27H42C43.0609 27 44.0783 26.5786 44.8284 25.8284C45.5786 25.0783 46 24.0609 46 23V15.66C46.0004 15.1346 45.8973 14.6142 45.6965 14.1286C45.4958 13.643 45.2013 13.2018 44.83 12.83L42 10H8Z" stroke="white" stroke-width="1.5" stroke-linecap="round" stroke-linejoin="round"/>
			<path d="M42 10L39.68 3.05C39.4805 2.45227 39.0977 1.93256 38.5862 1.56459C38.0746 1.19662 37.4602 0.999081 36.83 1H13.16C12.5298 0.999081 11.9154 1.19662 11.4038 1.56459C10.8923 1.93256 10.5095 2.45227 10.31 3.05L8 10H42Z" stroke="white" stroke-width="1.5" stroke-linecap="round" stroke-linejoin="round"/>
			<path d="M4 23.5V31C4 31.2652 4.10536 31.5196 4.29289 31.7071C4.48043 31.8946 4.73478 32 5 32H8C8.26522 32 8.51957 31.8946 8.70711 31.7071C8.89464 31.5196 9 31.2652 9 31V27.62" stroke="white" stroke-width="1.5" stroke-linecap="round" stroke-linejoin="round"/>
			<path d="M46 23.5V31C46 31.2652 45.8946 31.5196 45.7071 31.7071C45.5196 31.8946 45.2652 32 45 32H42C41.7348 32 41.4804 31.8946 41.2929 31.7071C41.1054 31.5196 41 31.2652 41 31V27.62" stroke="white" stroke-width="1.5" stroke-linecap="round" stroke-linejoin="round"/>
			<path d="M9 20C10.1046 20 11 19.1046 11 18C11 16.8954 10.1046 16 9 16C7.89543 16 7 16.8954 7 18C7 19.1046 7.89543 20 9 20Z" stroke="white" stroke-width="1.5" stroke-linecap="round" stroke-linejoin="round"/>
			<path d="M41 20C42.1046 20 43 19.1046 43 18C43 16.8954 42.1046 16 41 16C39.8954 16 39 16.8954 39 18C39 19.1046 39.8954 20 41 20Z" stroke="white" stroke-width="1.5" stroke-linecap="round" stroke-linejoin="round"/>
			<path d="M33.2203 19.9999H16.7803C16.5519 20.0066 16.3281 19.9348 16.1461 19.7965C15.9642 19.6582 15.8351 19.4618 15.7803 19.2399L15.2803 17.2399C15.2432 17.0902 15.2413 16.9339 15.2746 16.7833C15.308 16.6327 15.3757 16.4918 15.4726 16.3718C15.5694 16.2517 15.6927 16.1556 15.8328 16.0911C15.973 16.0266 16.1261 15.9954 16.2803 15.9999H33.7203C33.8745 15.9954 34.0277 16.0266 34.1678 16.0911C34.3079 16.1556 34.4312 16.2517 34.5281 16.3718C34.6249 16.4918 34.6926 16.6327 34.726 16.7833C34.7593 16.9339 34.7574 17.0902 34.7203 17.2399L34.2203 19.2399C34.1656 19.4618 34.0365 19.6582 33.8545 19.7965C33.6726 19.9348 33.4487 20.0066 33.2203 19.9999Z" stroke="white" stroke-width="1.5" stroke-linecap="round" stroke-linejoin="round"/>
			<path d="M16 23H34C34.2652 23 34.5196 23.1054 34.7071 23.2929C34.8946 23.4804 35 23.7348 35 24V27H15V24C15 23.7348 15.1054 23.4804 15.2929 23.2929C15.4804 23.1054 15.7348 23 16 23Z" stroke="white" stroke-width="1.5" stroke-linecap="round" stroke-linejoin="round"/>
			<path d="M4 6H3C1.89543 6 1 6.89543 1 8C1 9.10457 1.89543 10 3 10H4C5.10457 10 6 9.10457 6 8C6 6.89543 5.10457 6 4 6Z" stroke="white" stroke-width="1.5" stroke-linecap="round" stroke-linejoin="round"/>
			<path d="M47 6H46C44.8954 6 44 6.89543 44 8C44 9.10457 44.8954 10 46 10H47C48.1046 10 49 9.10457 49 8C49 6.89543 48.1046 6 47 6Z" stroke="white" stroke-width="1.5" stroke-linecap="round" stroke-linejoin="round"/>
        </symbol><!-- #svg-car - END -->
		
        <symbol id="svg-bus" width="100%" height="100%" viewBox="0 0 38 42" fill="none" >
			<path d="M9 33C10.1046 33 11 32.1046 11 31C11 29.8954 10.1046 29 9 29C7.89543 29 7 29.8954 7 31C7 32.1046 7.89543 33 9 33Z" stroke="white" stroke-width="1.5" stroke-linecap="round" stroke-linejoin="round"/>
			<path d="M29 33C30.1046 33 31 32.1046 31 31C31 29.8954 30.1046 29 29 29C27.8954 29 27 29.8954 27 31C27 32.1046 27.8954 33 29 33Z" stroke="white" stroke-width="1.5" stroke-linecap="round" stroke-linejoin="round"/>
			<path d="M30 1H8C5.79086 1 4 2.79086 4 5V33C4 35.2091 5.79086 37 8 37H30C32.2091 37 34 35.2091 34 33V5C34 2.79086 32.2091 1 30 1Z" stroke="white" stroke-width="1.5" stroke-linecap="round" stroke-linejoin="round"/>
			<path d="M4 16H3C2.46957 16 1.96086 15.7893 1.58579 15.4142C1.21071 15.0391 1 14.5304 1 14V9C1 8.46957 1.21071 7.96086 1.58579 7.58579C1.96086 7.21071 2.46957 7 3 7H35C35.5304 7 36.0391 7.21071 36.4142 7.58579C36.7893 7.96086 37 8.46957 37 9V14C37 14.5304 36.7893 15.0391 36.4142 15.4142C36.0391 15.7893 35.5304 16 35 16H34" stroke="white" stroke-width="1.5" stroke-linecap="round" stroke-linejoin="round"/>
			<path d="M4 25.48H14.67H34" stroke="white" stroke-width="1.5" stroke-linecap="round" stroke-linejoin="round"/>
			<path d="M16 4H22" stroke="white" stroke-width="1.5" stroke-linecap="round" stroke-linejoin="round"/>
			<path d="M13 37V40C13 40.2652 12.8946 40.5196 12.7071 40.7071C12.5196 40.8946 12.2652 41 12 41H5C4.73478 41 4.48043 40.8946 4.29289 40.7071C4.10536 40.5196 4 40.2652 4 40V33" stroke="white" stroke-width="1.5" stroke-linecap="round" stroke-linejoin="round"/>
			<path d="M25 37V40C25 40.2652 25.1054 40.5196 25.2929 40.7071C25.4804 40.8946 25.7348 41 26 41H33C33.2652 41 33.5196 40.8946 33.7071 40.7071C33.8946 40.5196 34 40.2652 34 40V33" stroke="white" stroke-width="1.5" stroke-linecap="round" stroke-linejoin="round"/>
        </symbol><!-- #svg-bus - END -->
		
        <symbol id="svg-bicycle" width="100%" height="100%" viewBox="0 0 46 41" fill="none" >
			<path d="M21.1205 7.7C22.9707 7.7 24.4705 6.20015 24.4705 4.35C24.4705 2.49985 22.9707 1 21.1205 1C19.2704 1 17.7705 2.49985 17.7705 4.35C17.7705 6.20015 19.2704 7.7 21.1205 7.7Z" stroke="white" stroke-width="1.5" stroke-linecap="round" stroke-linejoin="round"/>
			<path d="M8.82 40.12C13.1389 40.12 16.64 36.6188 16.64 32.3C16.64 27.9811 13.1389 24.48 8.82 24.48C4.50113 24.48 1 27.9811 1 32.3C1 36.6188 4.50113 40.12 8.82 40.12Z" stroke="white" stroke-width="1.5" stroke-linecap="round" stroke-linejoin="round"/>
			<path d="M36.7704 40.1302C41.0948 40.1302 44.6004 36.6246 44.6004 32.3002C44.6004 27.9758 41.0948 24.4702 36.7704 24.4702C32.446 24.4702 28.9404 27.9758 28.9404 32.3002C28.9404 36.6246 32.446 40.1302 36.7704 40.1302Z" stroke="white" stroke-width="1.5" stroke-linecap="round" stroke-linejoin="round"/>
			<path d="M36.7704 32.3002L31.1804 14.4102H28.9404" stroke="white" stroke-width="1.5" stroke-linecap="round" stroke-linejoin="round"/>
			<path d="M22.2305 18.8901H32.2905" stroke="white" stroke-width="1.5" stroke-linecap="round" stroke-linejoin="round"/>
			<path d="M33.0306 20.3398L24.8906 28.4698" stroke="white" stroke-width="1.5" stroke-linecap="round" stroke-linejoin="round"/>
			<path d="M27.5307 12.9299L22.8007 12.2299L18.1207 9.49992C17.6071 9.20601 16.9981 9.12728 16.4266 9.28092C15.8551 9.43456 15.3677 9.80808 15.0707 10.3199L10.8007 17.7199C10.5068 18.2335 10.4281 18.8426 10.5817 19.414C10.7353 19.9855 11.1089 20.4729 11.6207 20.7699L18.1407 24.5399L19.1407 31.9799C19.198 32.4819 19.4295 32.948 19.795 33.297C20.1604 33.6459 20.6366 33.8557 21.1407 33.8899C21.449 33.905 21.7567 33.8516 22.0419 33.7336C22.3271 33.6155 22.5826 33.4358 22.7901 33.2073C22.9975 32.9788 23.1518 32.7072 23.2418 32.412C23.3318 32.1168 23.3554 31.8053 23.3107 31.4999L21.9807 21.9299L16.6007 18.8199L19.5307 13.7499L21.7607 15.0399L27.1007 15.8499C27.4985 15.9083 27.9032 15.8062 28.2258 15.5661C28.5484 15.3261 28.7623 14.9677 28.8207 14.5699C28.879 14.1721 28.777 13.7674 28.5369 13.4448C28.2969 13.1223 27.9385 12.9083 27.5407 12.8499L27.5307 12.9299Z" stroke="white" stroke-width="1.5" stroke-linecap="round" stroke-linejoin="round"/>
			<path d="M16.4405 32H8.73047L12.7305 25.52" stroke="white" stroke-width="1.5" stroke-linecap="round" stroke-linejoin="round"/>
        </symbol><!-- #svg-bicycle - END -->
		
        <symbol id="svg-museum" width="100%" height="100%" viewBox="0 0 47 45" fill="none" >
			<path d="M11.2998 36.59L11.2998 19.73H6.61981L6.61981 36.59H11.2998Z" stroke="white" stroke-width="1.5" stroke-linecap="round" stroke-linejoin="round"/>
			<path d="M40.3301 36.59V19.73H35.6501V36.59H40.3301Z" stroke="white" stroke-width="1.5" stroke-linecap="round" stroke-linejoin="round"/>
			<path d="M25.3496 36.59V19.73H20.6696V36.59H25.3496Z" stroke="white" stroke-width="1.5" stroke-linecap="round" stroke-linejoin="round"/>
			<path d="M43.1396 15.0503H3.80957V19.7303H43.1396V15.0503Z" stroke="white" stroke-width="1.5" stroke-linecap="round" stroke-linejoin="round"/>
			<path d="M43.1396 36.5898H3.80957V40.3398H43.1396V36.5898Z" stroke="white" stroke-width="1.5" stroke-linecap="round" stroke-linejoin="round"/>
			<path d="M45.95 40.3301H1V44.0801H45.95V40.3301Z" stroke="white" stroke-width="1.5" stroke-linecap="round" stroke-linejoin="round"/>
			<path d="M23.4797 1L5.67969 15.05H41.2697L23.4797 1Z" stroke="white" stroke-width="1.5" stroke-linecap="round" stroke-linejoin="round"/>
        </symbol><!-- #svg-museum - END -->
		
        <symbol id="svg-cup-coffee" width="100%" height="100%" viewBox="0 0 43 45" fill="none" >
            <path d="M35.54 44.1901H4.04L1 41.1401H37.57L35.54 44.1901Z" stroke="white" stroke-width="1.5" stroke-linecap="round" stroke-linejoin="round"/>
            <path d="M36.2803 14.73H3.02031C3.02031 14.73 1.02031 34.49 11.9103 41.14H27.3903C38.2803 34.49 36.2803 14.73 36.2803 14.73Z" stroke="white" stroke-width="1.5" stroke-linecap="round" stroke-linejoin="round"/>
            <path d="M11.4599 1L10.9899 3C10.8509 3.61093 10.9201 4.25078 11.1865 4.81789C11.4528 5.385 11.901 5.84683 12.4599 6.13V6.13C13.071 6.44044 13.5475 6.96349 13.7998 7.60072C14.0521 8.23794 14.0628 8.94542 13.8299 9.59L13.2499 11.2" stroke="white" stroke-width="1.5" stroke-linecap="round" stroke-linejoin="round"/>
            <path d="M18.5703 1L18.1003 3C17.9613 3.61093 18.0305 4.25078 18.2968 4.81789C18.5632 5.385 19.0114 5.84683 19.5703 6.13V6.13C20.1813 6.44044 20.6578 6.96349 20.9101 7.60072C21.1624 8.23794 21.1732 8.94542 20.9403 9.59L20.3603 11.2" stroke="white" stroke-width="1.5" stroke-linecap="round" stroke-linejoin="round"/>
            <path d="M25.6299 1L25.1599 3C25.0209 3.61093 25.09 4.25078 25.3564 4.81789C25.6227 5.385 26.071 5.84683 26.6299 6.13V6.13C27.2409 6.44044 27.7174 6.96349 27.9697 7.60072C28.222 8.23794 28.2327 8.94542 27.9999 9.59L27.4199 11.2" stroke="white" stroke-width="1.5" stroke-linecap="round" stroke-linejoin="round"/>
            <path d="M36.42 21.21H41.63V23.63C41.621 26.0164 40.8168 28.3318 39.3443 30.2099C37.8719 32.0881 35.8154 33.4217 33.5 34V34" stroke="white" stroke-width="1.5" stroke-linecap="round" stroke-linejoin="round"/>
        </symbol><!-- #svg-cup-coffee - END -->
		
        <symbol id="svg-picture" width="100%" height="100%" viewBox="0 0 45 45" fill="none" >
			<path d="M43.95 15.6499H1V43.9599H43.95V15.6499Z" stroke="white" stroke-width="1.5" stroke-linecap="round" stroke-linejoin="round"/>
			<path d="M23.46 33.2201L13.69 27.3701L1 35.1701" stroke="white" stroke-width="1.5" stroke-linecap="round" stroke-linejoin="round"/>
			<path d="M43.9596 34.2001L33.2196 27.3701L17.5996 37.1301" stroke="white" stroke-width="1.5" stroke-linecap="round" stroke-linejoin="round"/>
			<path d="M20.6703 7.68018L16.0703 15.6502H29.8603L25.2603 7.69018" stroke="white" stroke-width="1.5" stroke-linecap="round" stroke-linejoin="round"/>
			<path d="M22.9698 7.84C24.8586 7.84 26.3898 6.30881 26.3898 4.42C26.3898 2.53119 24.8586 1 22.9698 1C21.081 1 19.5498 2.53119 19.5498 4.42C19.5498 6.30881 21.081 7.84 22.9698 7.84Z" stroke="white" stroke-width="1.5" stroke-linecap="round" stroke-linejoin="round"/>
        </symbol><!-- #svg-picture - END -->

        <symbol id="svg-shevchenko-museum-logo" width="100%" height="100%" viewBox="0 0 44 37" fill="none" >
            <path d="M30.8124 21.671L35.1876 19.2063V17.9139L30.8124 20.3786V21.671ZM26.4062 12.4435L22 14.8781V16.2006L26.4062 13.736V12.4435ZM22 37L44 24.7067V23.3842L22 35.7076V37ZM30.8124 25.5784V26.8708L35.1876 24.4062V23.1137L30.8124 25.5784ZM35.1876 8.80666V7.51422L30.8124 9.97888V11.2713L35.1876 8.80666ZM30.8124 13.8863L35.1876 11.4216V10.0991L30.8124 12.5638V13.8863ZM22 34.3851L44 22.0918V20.7994L22 33.0926V34.3851ZM30.8124 16.4712L35.1876 14.0065V12.7141L30.8124 15.1787V16.4712ZM26.4062 15.0284L22 17.4931V18.7855L26.4062 16.3209V15.0284ZM30.8124 19.0861L35.1876 16.6214V15.329L30.8124 17.7636V19.0861ZM39.5938 14.1568L44 11.6921V10.3997L39.5938 12.8643V14.1568ZM39.5938 16.7417L44 14.3071V12.9846L39.5938 15.4492V16.7417ZM26.4062 9.8286L22 12.2933V13.5857L26.4062 11.121V9.8286ZM39.5938 21.9716L44 19.5069V18.1844L39.5938 20.6491V21.9716ZM39.5938 19.3566L44 16.892V15.5995L39.5938 18.0642V19.3566ZM26.4062 28.0431L22 30.5077V31.8002L26.4062 29.3355V28.0431ZM39.5938 8.95695L44 6.49228V5.19984L39.5938 7.6645V8.95695ZM39.5938 5.04955V6.342L44 3.90739V2.58489L39.5938 5.04955ZM44 0L39.5938 2.46466V3.75711L44 1.29245V0ZM35.1876 4.89927L30.8124 7.36393V8.68643L35.1876 6.22177V4.89927ZM30.8124 24.2859L35.1876 21.8213V20.5288L30.8124 22.9634V24.2859ZM39.5938 11.5418L44 9.10723V7.78473L39.5938 10.2494V11.5418ZM26.4062 22.8432L22 25.3079V26.6003L26.4062 24.1357V22.8432ZM26.4062 20.2283L22 22.6929V23.9854L26.4062 21.5207V20.2283ZM26.4062 17.6434L22 20.078V21.4005L26.4062 18.9358V17.6434ZM26.4062 25.4281L22 27.8928V29.1852L26.4062 26.7206V25.4281ZM0 24.7067L4.40621 27.1714V7.36393L8.81241 9.8286V29.606L13.2186 32.0707V12.2933L17.5938 14.7579V34.5353L22 37V12.2933L0 0V24.7067Z" fill="white"/>
        </symbol><!-- #svg-smartmovie-museum-logo - END -->
		
        <symbol id="svg-girl-flag" width="100%" height="100%" viewBox="0 0 64 64" fill="none" >
			<path d="M48 39C47.3051 39.0165 46.6261 38.7911 46.0789 38.3625C45.5318 37.9339 45.1504 37.3286 45 36.65L44.45 34C43.2328 34.6436 41.8768 34.9801 40.5 34.9801C39.1232 34.9801 37.7672 34.6436 36.55 34L36 36.65C35.8496 37.3286 35.4682 37.9339 34.9211 38.3625C34.3739 38.7911 33.6949 39.0165 33 39C30.6131 39 28.3239 39.9482 26.636 41.636C24.9482 43.3239 24 45.6131 24 48V58H57V48C57 45.6131 56.0518 43.3239 54.364 41.636C52.6761 39.9482 50.3869 39 48 39Z" stroke="white" stroke-width="1.5" stroke-linecap="round" stroke-linejoin="round"/>
			<path d="M53.0497 34.09C52.405 33.2222 52.0546 32.171 52.0497 31.09V21.88C52.0855 18.8127 50.9205 15.853 48.8035 13.6331C46.6864 11.4133 43.7852 10.1094 40.7197 9.99996C39.1914 9.97207 37.6729 10.2489 36.2528 10.8142C34.8326 11.3795 33.5393 12.222 32.4483 13.2925C31.3573 14.363 30.4905 15.6401 29.8983 17.0493C29.3062 18.4585 29.0007 19.9715 28.9997 21.5V31.19C28.9845 32.2264 28.6336 33.2299 27.9997 34.05C27.5903 34.5996 27.2998 35.2284 27.1465 35.8963C26.9933 36.5643 26.9808 37.2569 27.1097 37.93C27.2747 38.8353 27.6945 39.6747 28.3197 40.35C29.7259 39.4784 31.3452 39.0112 32.9997 39V39C33.6945 39.0164 34.3735 38.7911 34.9207 38.3625C35.4679 37.9339 35.8493 37.3286 35.9997 36.65L36.5497 34C35.1803 33.2825 34.0328 32.2049 33.2309 30.8831C32.4291 29.5614 32.0034 28.0459 31.9997 26.5V24.25L36.9997 23C40.9997 22 40.3897 16.7 44.1897 15.85C44.1997 15.92 44.9997 24 48.9997 24V26.5C48.9959 28.0459 48.5702 29.5614 47.7684 30.8831C46.9665 32.2049 45.819 33.2825 44.4497 34V34L44.9997 36.65C45.1501 37.3286 45.5314 37.9339 46.0786 38.3625C46.6258 38.7911 47.3048 39.0164 47.9997 39C49.6745 39.0002 51.316 39.4677 52.7397 40.35C53.5031 39.5029 53.9541 38.4202 54.0177 37.2816C54.0814 36.143 53.7539 35.0169 53.0897 34.09H53.0497Z" stroke="white" stroke-width="1.5" stroke-linecap="round" stroke-linejoin="round"/>
			<path d="M20.0901 57.9998V16.3398L5.08008 31.3398H20.0901" stroke="white" stroke-width="1.5" stroke-linecap="round" stroke-linejoin="round"/>
			<path d="M45.4999 38.3398C42.3599 40.4665 38.8333 40.4665 34.9199 38.3398V42.9998L40.4999 40.2298L45.3599 42.9998L45.4999 38.3398Z" stroke="white" stroke-width="1.5" stroke-linecap="round" stroke-linejoin="round"/>
			<path d="M31.4102 57.23V52" stroke="white" stroke-width="1.5" stroke-linecap="round" stroke-linejoin="round"/>
			<path d="M49.0498 57.23V52" stroke="white" stroke-width="1.5" stroke-linecap="round" stroke-linejoin="round"/>
        </symbol><!-- #svg-girl-flag - END -->
		
        <symbol id="svg-map-marker" width="100%" height="100%" viewBox="0 0 71 101" >
			<path d="M71 35.8632C71 26.3517 67.2599 17.2298 60.6024 10.5041C53.9448 3.77846 44.9153 0 35.5001 0C26.0849 0 17.0553 3.77846 10.3978 10.5041C3.74023 17.2298 0 26.3517 0 35.8632C0 68.8984 35.3012 101 35.3012 101C35.3012 101 71 68.8984 71 35.8632Z" />
        </symbol><!-- #svg-map-marker - END -->
		
        <symbol id="svg-guide" width="100%" height="100%" viewBox="0 0 64 64" >
			<path d="M45.9805 55.6099L19.5605 55.6099L19.5605 15.3099L45.9805 15.3099C47.0413 15.3099 48.0587 15.7313 48.8089 16.4814C49.559 17.2316 49.9805 18.249 49.9805 19.3099L49.9805 51.6099C49.9805 52.6707 49.559 53.6881 48.8089 54.4383C48.0587 55.1884 47.0413 55.6099 45.9805 55.6099Z" stroke="white" stroke-width="1.5" stroke-linecap="round" stroke-linejoin="round"/>
			<path d="M46.3401 8.79004C45.9401 8.79004 19.5801 15.07 19.5801 15.07V23.7" stroke="white" stroke-width="1.5" stroke-linecap="round" stroke-linejoin="round"/>
			<path d="M19.29 49.0601C18.3789 48.9388 17.543 48.4906 16.9377 47.7989C16.3325 47.1072 15.9993 46.2192 16 45.3001V12.5801C15.9987 12.082 16.0958 11.5885 16.2858 11.1281C16.4758 10.6677 16.7549 10.2494 17.1071 9.89718C17.4593 9.54498 17.8777 9.26586 18.3381 9.07586C18.7985 8.88586 19.2919 8.78873 19.79 8.79005H46.34V15.3201" stroke="white" stroke-width="1.5" stroke-linecap="round" stroke-linejoin="round"/>
			<path d="M44.5003 22.1299H25.0303V34.5799H44.5003V22.1299Z" stroke="white" stroke-width="1.5" stroke-linecap="round" stroke-linejoin="round"/>
			<path d="M39.0699 34.5798L34.6399 30.2598L29.6299 34.5798" stroke="white" stroke-width="1.5" stroke-linecap="round" stroke-linejoin="round"/>
			<path d="M44.49 31.5401L41.3 28.3501L35.96 31.5401" stroke="white" stroke-width="1.5" stroke-linecap="round" stroke-linejoin="round"/>
			<path d="M29.6302 28.6598C30.558 28.6598 31.3102 27.9076 31.3102 26.9798C31.3102 26.052 30.558 25.2998 29.6302 25.2998C28.7024 25.2998 27.9502 26.052 27.9502 26.9798C27.9502 27.9076 28.7024 28.6598 29.6302 28.6598Z" stroke="white" stroke-width="1.5" stroke-linecap="round" stroke-linejoin="round"/>
			<path d="M25.0303 41.3501H44.4903" stroke="white" stroke-width="1.5" stroke-linecap="round" stroke-linejoin="round"/>
			<path d="M25.0303 45.1401H44.4903" stroke="white" stroke-width="1.5" stroke-linecap="round" stroke-linejoin="round"/>
			<path d="M25.0303 48.9302H44.4903" stroke="white" stroke-width="1.5" stroke-linecap="round" stroke-linejoin="round"/>
        </symbol><!-- #svg-guide - END -->
		
        <symbol id="svg-mail" width="100%" height="100%" viewBox="0 0 24 23" >
			<path d="M4 3.8335H20C21.1 3.8335 22 4.696 22 5.75016V17.2502C22 18.3043 21.1 19.1668 20 19.1668H4C2.9 19.1668 2 18.3043 2 17.2502V5.75016C2 4.696 2.9 3.8335 4 3.8335Z" stroke-linecap="round" stroke-linejoin="round"/>
			<path d="M22 5.75L12 12.4583L2 5.75" stroke-linecap="round" stroke-linejoin="round"/>
        </symbol><!-- #svg-mail - END -->
		
        <symbol id="svg-calendar" width="100%" height="100%" viewBox="0 0 20 23" >
			<path d="M17 3.00195H3C1.89543 3.00195 1 3.89738 1 5.00195V19.002C1 20.1065 1.89543 21.002 3 21.002H17C18.1046 21.002 19 20.1065 19 19.002V5.00195C19 3.89738 18.1046 3.00195 17 3.00195Z" stroke-linecap="round" stroke-linejoin="round"/>
			<path d="M14 1.00195V5.00195" stroke-linecap="round" stroke-linejoin="round"/>
			<path d="M6 1.00195V5.00195" stroke-linecap="round" stroke-linejoin="round"/>
			<path d="M1 9.00195H19" stroke-linecap="round" stroke-linejoin="round"/>
        </symbol><!-- #svg-calendar - END -->

        <symbol id="svg-arrow-right-circle" width="22" height="22" viewBox="0 0 22 22" fill="none" >
            <rect width="20" height="20" fill="black" fill-opacity="0" transform="translate(1 1)"/>
            <path d="M11 21C16.5228 21 21 16.5228 21 11C21 5.47715 16.5228 1 11 1C5.47715 1 1 5.47715 1 11C1 16.5228 5.47715 21 11 21Z" stroke="#7AB317" stroke-width="2" stroke-linecap="round" stroke-linejoin="round"/>
            <path d="M11 15L15 11L11 7" stroke="#7AB317" stroke-width="2" stroke-linecap="round" stroke-linejoin="round"/>
            <path d="M7 11H15" stroke="#7AB317" stroke-width="2" stroke-linecap="round" stroke-linejoin="round"/>
        </symbol><!-- #svg-arrow-right-circle - END -->

        <symbol id="svg-filter" width="44" height="44" viewBox="0 0 44 44" fill="none">
            <path d="M34.375 9.625H41.25" stroke="#7AB317" stroke-width="3" stroke-linecap="round" stroke-linejoin="round"/>
            <path d="M2.75 9.625H26.125" stroke="#7AB317" stroke-width="3" stroke-linecap="round" stroke-linejoin="round"/>
            <path d="M30.25 13.75C32.5282 13.75 34.375 11.9032 34.375 9.625C34.375 7.34683 32.5282 5.5 30.25 5.5C27.9718 5.5 26.125 7.34683 26.125 9.625C26.125 11.9032 27.9718 13.75 30.25 13.75Z" stroke="#7AB317" stroke-width="3" stroke-linecap="round" stroke-linejoin="round"/>
            <path d="M13.75 26.125C16.0282 26.125 17.875 24.2782 17.875 22C17.875 19.7218 16.0282 17.875 13.75 17.875C11.4718 17.875 9.625 19.7218 9.625 22C9.625 24.2782 11.4718 26.125 13.75 26.125Z" stroke="#7AB317" stroke-width="3" stroke-linecap="round" stroke-linejoin="round"/>
            <path d="M24.75 38.5C27.0282 38.5 28.875 36.6532 28.875 34.375C28.875 32.0968 27.0282 30.25 24.75 30.25C22.4718 30.25 20.625 32.0968 20.625 34.375C20.625 36.6532 22.4718 38.5 24.75 38.5Z" stroke="#7AB317" stroke-width="3" stroke-linecap="round" stroke-linejoin="round"/>
            <path d="M17.875 22H41.25" stroke="#7AB317" stroke-width="3" stroke-linecap="round" stroke-linejoin="round"/>
            <path d="M2.75 22H9.625" stroke="#7AB317" stroke-width="3" stroke-linecap="round" stroke-linejoin="round"/>
            <path d="M28.875 34.375H41.25" stroke="#7AB317" stroke-width="3" stroke-linecap="round" stroke-linejoin="round"/>
            <path d="M2.75 34.375H20.625" stroke="#7AB317" stroke-width="3" stroke-linecap="round" stroke-linejoin="round"/>
        </symbol><!-- #svg-filter - END -->
</svg>