<svg width="57" height="57" viewBox="0 0 57 57" fill="none" xmlns="http://www.w3.org/2000/svg">
<path d="M28.9379 22.4434C25.8616 22.4434 23.3567 24.9429 23.3567 28.014C23.3567 31.0864 25.8616 33.5871 28.9379 33.5871C32.0154 33.5871 34.519 31.0864 34.519 28.014C34.519 24.9429 32.0154 22.4434 28.9379 22.4434ZM28.9379 22.4434C25.8616 22.4434 23.3567 24.9429 23.3567 28.014C23.3567 31.0864 25.8616 33.5871 28.9379 33.5871C32.0154 33.5871 34.519 31.0864 34.519 28.014C34.519 24.9429 32.0154 22.4434 28.9379 22.4434ZM38.2357 13.3591H19.6413C16.6734 13.3591 14.2584 15.77 14.2584 18.733V37.2963C14.2584 40.2593 16.6734 42.6702 19.6413 42.6702H38.2357C41.2036 42.6702 43.6186 40.2593 43.6186 37.2963V18.733C43.6186 15.77 41.2036 13.3591 38.2357 13.3591ZM28.9379 37.6639C23.6092 37.6639 19.2731 33.3351 19.2731 28.014C19.2731 22.6942 23.6092 18.3654 28.9379 18.3654C34.2678 18.3654 38.6039 22.6942 38.6039 28.014C38.6039 33.3351 34.2678 37.6639 28.9379 37.6639ZM38.9142 20.3608C37.6532 20.3608 36.6273 19.3366 36.6273 18.0777C36.6273 16.8187 37.6532 15.7946 38.9142 15.7946C40.1753 15.7946 41.2011 16.8187 41.2011 18.0777C41.2011 19.3366 40.1753 20.3608 38.9142 20.3608ZM28.9379 22.4434C25.8616 22.4434 23.3567 24.9429 23.3567 28.014C23.3567 31.0864 25.8616 33.5871 28.9379 33.5871C32.0154 33.5871 34.519 31.0864 34.519 28.014C34.519 24.9429 32.0154 22.4434 28.9379 22.4434ZM38.2357 13.3591H19.6413C16.6734 13.3591 14.2584 15.77 14.2584 18.733V37.2963C14.2584 40.2593 16.6734 42.6702 19.6413 42.6702H38.2357C41.2036 42.6702 43.6186 40.2593 43.6186 37.2963V18.733C43.6186 15.77 41.2036 13.3591 38.2357 13.3591ZM28.9379 37.6639C23.6092 37.6639 19.2731 33.3351 19.2731 28.014C19.2731 22.6942 23.6092 18.3654 28.9379 18.3654C34.2678 18.3654 38.6039 22.6942 38.6039 28.014C38.6039 33.3351 34.2678 37.6639 28.9379 37.6639ZM38.9142 20.3608C37.6532 20.3608 36.6273 19.3366 36.6273 18.0777C36.6273 16.8187 37.6532 15.7946 38.9142 15.7946C40.1753 15.7946 41.2011 16.8187 41.2011 18.0777C41.2011 19.3366 40.1753 20.3608 38.9142 20.3608ZM28.9379 22.4434C25.8616 22.4434 23.3567 24.9429 23.3567 28.014C23.3567 31.0864 25.8616 33.5871 28.9379 33.5871C32.0154 33.5871 34.519 31.0864 34.519 28.014C34.519 24.9429 32.0154 22.4434 28.9379 22.4434ZM0.876953 0V56.0293H57V0H0.876953ZM47.7022 37.2963C47.7022 42.5079 43.456 46.747 38.2357 46.747H19.6413C14.421 46.747 10.1748 42.5079 10.1748 37.2963V18.733C10.1748 13.5214 14.421 9.28228 19.6413 9.28228H38.2357C43.456 9.28228 47.7022 13.5214 47.7022 18.733V37.2963ZM38.2357 13.3591H19.6413C16.6734 13.3591 14.2584 15.77 14.2584 18.733V37.2963C14.2584 40.2593 16.6734 42.6702 19.6413 42.6702H38.2357C41.2036 42.6702 43.6186 40.2593 43.6186 37.2963V18.733C43.6186 15.77 41.2036 13.3591 38.2357 13.3591ZM28.9379 37.6639C23.6092 37.6639 19.2731 33.3351 19.2731 28.014C19.2731 22.6942 23.6092 18.3654 28.9379 18.3654C34.2678 18.3654 38.6039 22.6942 38.6039 28.014C38.6039 33.3351 34.2678 37.6639 28.9379 37.6639ZM38.9142 20.3608C37.6532 20.3608 36.6273 19.3366 36.6273 18.0777C36.6273 16.8187 37.6532 15.7946 38.9142 15.7946C40.1753 15.7946 41.2011 16.8187 41.2011 18.0777C41.2011 19.3366 40.1753 20.3608 38.9142 20.3608ZM28.9379 22.4434C25.8616 22.4434 23.3567 24.9429 23.3567 28.014C23.3567 31.0864 25.8616 33.5871 28.9379 33.5871C32.0154 33.5871 34.519 31.0864 34.519 28.014C34.519 24.9429 32.0154 22.4434 28.9379 22.4434ZM28.9379 22.4434C25.8616 22.4434 23.3567 24.9429 23.3567 28.014C23.3567 31.0864 25.8616 33.5871 28.9379 33.5871C32.0154 33.5871 34.519 31.0864 34.519 28.014C34.519 24.9429 32.0154 22.4434 28.9379 22.4434ZM28.9379 22.4434C25.8616 22.4434 23.3567 24.9429 23.3567 28.014C23.3567 31.0864 25.8616 33.5871 28.9379 33.5871C32.0154 33.5871 34.519 31.0864 34.519 28.014C34.519 24.9429 32.0154 22.4434 28.9379 22.4434ZM38.2357 13.3591H19.6413C16.6734 13.3591 14.2584 15.77 14.2584 18.733V37.2963C14.2584 40.2593 16.6734 42.6702 19.6413 42.6702H38.2357C41.2036 42.6702 43.6186 40.2593 43.6186 37.2963V18.733C43.6186 15.77 41.2036 13.3591 38.2357 13.3591ZM28.9379 37.6639C23.6092 37.6639 19.2731 33.3351 19.2731 28.014C19.2731 22.6942 23.6092 18.3654 28.9379 18.3654C34.2678 18.3654 38.6039 22.6942 38.6039 28.014C38.6039 33.3351 34.2678 37.6639 28.9379 37.6639ZM38.9142 20.3608C37.6532 20.3608 36.6273 19.3366 36.6273 18.0777C36.6273 16.8187 37.6532 15.7946 38.9142 15.7946C40.1753 15.7946 41.2011 16.8187 41.2011 18.0777C41.2011 19.3366 40.1753 20.3608 38.9142 20.3608ZM28.9379 22.4434C25.8616 22.4434 23.3567 24.9429 23.3567 28.014C23.3567 31.0864 25.8616 33.5871 28.9379 33.5871C32.0154 33.5871 34.519 31.0864 34.519 28.014C34.519 24.9429 32.0154 22.4434 28.9379 22.4434ZM28.9379 22.4434C25.8616 22.4434 23.3567 24.9429 23.3567 28.014C23.3567 31.0864 25.8616 33.5871 28.9379 33.5871C32.0154 33.5871 34.519 31.0864 34.519 28.014C34.519 24.9429 32.0154 22.4434 28.9379 22.4434ZM28.9379 22.4434C25.8616 22.4434 23.3567 24.9429 23.3567 28.014C23.3567 31.0864 25.8616 33.5871 28.9379 33.5871C32.0154 33.5871 34.519 31.0864 34.519 28.014C34.519 24.9429 32.0154 22.4434 28.9379 22.4434ZM38.2357 13.3591H19.6413C16.6734 13.3591 14.2584 15.77 14.2584 18.733V37.2963C14.2584 40.2593 16.6734 42.6702 19.6413 42.6702H38.2357C41.2036 42.6702 43.6186 40.2593 43.6186 37.2963V18.733C43.6186 15.77 41.2036 13.3591 38.2357 13.3591ZM28.9379 37.6639C23.6092 37.6639 19.2731 33.3351 19.2731 28.014C19.2731 22.6942 23.6092 18.3654 28.9379 18.3654C34.2678 18.3654 38.6039 22.6942 38.6039 28.014C38.6039 33.3351 34.2678 37.6639 28.9379 37.6639ZM38.9142 20.3608C37.6532 20.3608 36.6273 19.3366 36.6273 18.0777C36.6273 16.8187 37.6532 15.7946 38.9142 15.7946C40.1753 15.7946 41.2011 16.8187 41.2011 18.0777C41.2011 19.3366 40.1753 20.3608 38.9142 20.3608ZM28.9379 22.4434C25.8616 22.4434 23.3567 24.9429 23.3567 28.014C23.3567 31.0864 25.8616 33.5871 28.9379 33.5871C32.0154 33.5871 34.519 31.0864 34.519 28.014C34.519 24.9429 32.0154 22.4434 28.9379 22.4434Z" fill="#C536A4"/>
</svg>
