<svg width="27" height="32" viewBox="0 0 27 32" fill="none" xmlns="http://www.w3.org/2000/svg">
<path d="M26 13.2727C26 22.8182 13.5 31 13.5 31C13.5 31 1 22.8182 1 13.2727C1 10.0178 2.31696 6.89618 4.66116 4.5946C7.00537 2.29302 10.1848 1 13.5 1C16.8152 1 19.9946 2.29302 22.3388 4.5946C24.683 6.89618 26 10.0178 26 13.2727Z" stroke="white" stroke-width="2" stroke-linecap="round" stroke-linejoin="round"/>
<path d="M13 17C15.2091 17 17 15.2091 17 13C17 10.7909 15.2091 9 13 9C10.7909 9 9 10.7909 9 13C9 15.2091 10.7909 17 13 17Z" stroke="white" stroke-width="2" stroke-linecap="round" stroke-linejoin="round"/>
</svg>
