<svg width="29" height="23" viewBox="0 0 29 23" fill="none" xmlns="http://www.w3.org/2000/svg">
<path d="M21 22.75H1C0.801893 22.7475 0.612629 22.6676 0.472534 22.5275C0.332439 22.3874 0.25259 22.1982 0.25 22V4.00005C0.25259 3.80194 0.332439 3.61268 0.472534 3.47258C0.612629 3.33249 0.801893 3.25264 1 3.25005H17.88C18.0789 3.25005 18.2697 3.32907 18.4103 3.46972C18.551 3.61037 18.63 3.80114 18.63 4.00005C18.63 4.19896 18.551 4.38973 18.4103 4.53038C18.2697 4.67103 18.0789 4.75005 17.88 4.75005H1.75V21.25H20.25V15.5C20.25 15.3011 20.329 15.1104 20.4697 14.9697C20.6103 14.8291 20.8011 14.75 21 14.75C21.1989 14.75 21.3897 14.8291 21.5303 14.9697C21.671 15.1104 21.75 15.3011 21.75 15.5V22C21.7474 22.1982 21.6676 22.3874 21.5275 22.5275C21.3874 22.6676 21.1981 22.7475 21 22.75V22.75ZM8 19.75H4C3.80109 19.75 3.61032 19.671 3.46967 19.5304C3.32902 19.3897 3.25 19.199 3.25 19C3.25 18.8011 3.32902 18.6104 3.46967 18.4697C3.61032 18.3291 3.80109 18.25 4 18.25H8C8.19891 18.25 8.38968 18.3291 8.53033 18.4697C8.67098 18.6104 8.75 18.8011 8.75 19C8.75 19.199 8.67098 19.3897 8.53033 19.5304C8.38968 19.671 8.19891 19.75 8 19.75ZM10.81 18.94C10.7112 18.9423 10.613 18.9239 10.5218 18.886C10.4305 18.8481 10.3482 18.7916 10.28 18.72C10.1893 18.6265 10.1248 18.5107 10.0932 18.3842C10.0616 18.2578 10.0639 18.1253 10.1 18L11.51 13.77C11.5421 13.6528 11.6041 13.546 11.69 13.46L23.83 1.28005C24.3544 0.780561 25.0508 0.501953 25.775 0.501953C26.4992 0.501953 27.1956 0.780561 27.72 1.28005C28.2336 1.7971 28.5218 2.49629 28.5218 3.22505C28.5218 3.95381 28.2336 4.653 27.72 5.17005L26.31 6.58005L15.58 17.31C15.4956 17.3979 15.3882 17.4603 15.27 17.49L11 18.9C10.9393 18.9238 10.8751 18.9373 10.81 18.94V18.94ZM12.55 15.34L12 17L13.67 16.44L12.55 15.34ZM13.28 14L15.05 15.77L24.72 6.10005L23 4.28005L13.28 14ZM24 3.22005L25.78 5.00005L26.66 4.12005C26.7764 4.00393 26.8688 3.866 26.9318 3.71413C26.9948 3.56227 27.0272 3.39947 27.0272 3.23505C27.0272 3.07063 26.9948 2.90783 26.9318 2.75596C26.8688 2.6041 26.7764 2.46616 26.66 2.35005C26.4206 2.12432 26.104 1.9986 25.775 1.9986C25.446 1.9986 25.1294 2.12432 24.89 2.35005L24 3.22005ZM6 16.75H4C3.80109 16.75 3.61032 16.671 3.46967 16.5304C3.32902 16.3897 3.25 16.199 3.25 16C3.25 15.8011 3.32902 15.6104 3.46967 15.4697C3.61032 15.3291 3.80109 15.25 4 15.25H6C6.19891 15.25 6.38968 15.3291 6.53033 15.4697C6.67098 15.6104 6.75 15.8011 6.75 16C6.75 16.199 6.67098 16.3897 6.53033 16.5304C6.38968 16.671 6.19891 16.75 6 16.75ZM9 13.75H4C3.80109 13.75 3.61032 13.671 3.46967 13.5304C3.32902 13.3897 3.25 13.199 3.25 13C3.25 12.8011 3.32902 12.6104 3.46967 12.4697C3.61032 12.3291 3.80109 12.25 4 12.25H9C9.19891 12.25 9.38968 12.3291 9.53033 12.4697C9.67098 12.6104 9.75 12.8011 9.75 13C9.75 13.199 9.67098 13.3897 9.53033 13.5304C9.38968 13.671 9.19891 13.75 9 13.75ZM7 10.75H4C3.80109 10.75 3.61032 10.671 3.46967 10.5304C3.32902 10.3897 3.25 10.199 3.25 10C3.25 9.80114 3.32902 9.61037 3.46967 9.46972C3.61032 9.32907 3.80109 9.25005 4 9.25005H7C7.19891 9.25005 7.38968 9.32907 7.53033 9.46972C7.67098 9.61037 7.75 9.80114 7.75 10C7.75 10.199 7.67098 10.3897 7.53033 10.5304C7.38968 10.671 7.19891 10.75 7 10.75V10.75ZM12 7.75005H4C3.80109 7.75005 3.61032 7.67103 3.46967 7.53038C3.32902 7.38973 3.25 7.19896 3.25 7.00005C3.25 6.80114 3.32902 6.61037 3.46967 6.46972C3.61032 6.32907 3.80109 6.25005 4 6.25005H12C12.1989 6.25005 12.3897 6.32907 12.5303 6.46972C12.671 6.61037 12.75 6.80114 12.75 7.00005C12.75 7.19896 12.671 7.38973 12.5303 7.53038C12.3897 7.67103 12.1989 7.75005 12 7.75005V7.75005Z" fill="white"/>
</svg>
