<svg width="42" height="35" viewBox="0 0 42 35" fill="none" xmlns="http://www.w3.org/2000/svg">
<path d="M0.312398 30.5331C4.04752 32.898 8.4782 34.2667 13.2277 34.2667C26.5708 34.2667 37.3872 23.4671 37.3872 10.1475C37.3872 9.81497 37.3802 9.48487 37.3674 9.15575C37.85 8.77659 40.8349 6.38816 41.5665 4.85271C41.5665 4.85271 39.1426 5.8584 36.7702 6.09531C36.7655 6.09531 36.7598 6.09641 36.7551 6.09641C36.7551 6.09641 36.7598 6.09408 36.7679 6.0883C36.9865 5.94249 40.0425 3.8656 40.4563 1.39099C40.4563 1.39099 38.7418 2.30458 36.3413 3.10384C35.9439 3.23563 35.5279 3.36522 35.099 3.48533C33.5516 1.83666 31.3521 0.807617 28.9107 0.807617C24.2277 0.807617 20.4329 4.5949 20.4329 9.26652C20.4329 9.92574 20.5089 10.5674 20.6526 11.1835C19.9982 11.1567 10.0326 10.5989 3.25296 2.40244C3.25296 2.40244 -0.798903 7.92471 5.66756 13.6032C5.66756 13.6032 3.70184 13.525 2.00595 12.5135C2.00595 12.5135 1.38306 19.2036 8.70615 20.9141C8.70615 20.9141 7.26518 21.459 4.96634 21.0705C4.96634 21.0705 6.2519 26.4761 12.7581 26.9812C12.7581 26.9812 7.61332 31.6211 0.310059 30.5325L0.312398 30.5331Z" fill="white"/>
</svg>
