<?xml version="1.0" encoding="UTF-8"?>
<!DOCTYPE svg PUBLIC "-//W3C//DTD SVG 1.1//EN" "http://www.w3.org/Graphics/SVG/1.1/DTD/svg11.dtd">
<!-- Creator: CorelDRAW X6 -->
<svg xmlns="http://www.w3.org/2000/svg" xml:space="preserve" width="68.086mm" height="68.086mm" version="1.1" style="shape-rendering:geometricPrecision; text-rendering:geometricPrecision; image-rendering:optimizeQuality; fill-rule:evenodd; clip-rule:evenodd"
viewBox="0 0 6809 6809"
 xmlns:xlink="http://www.w3.org/1999/xlink">
 <defs>
  <style type="text/css">
   <![CDATA[
    .str0 {stroke:#2B2A29;stroke-width:20}
    .fil0 {fill:#FEFDF8}
    .fil3 {fill:#003399;fill-rule:nonzero}
    .fil2 {fill:#006633;fill-rule:nonzero}
    .fil1 {fill:#BD002F;fill-rule:nonzero}
   ]]>
  </style>
 </defs>
 <g id="Слой_x0020_1">
  <metadata id="CorelCorpID_0Corel-Layer"/>
  <g id="_752397728">
   <path class="fil0 str0" d="M3404 0c1880,0 3404,1524 3404,3404 0,1880 -1524,3404 -3404,3404 -1880,0 -3404,-1524 -3404,-3404 0,-1880 1524,-3404 3404,-3404z"/>
   <g>
    <path class="fil1" d="M1187 2561c72,-3 135,4 188,23 54,19 96,47 127,85 31,38 49,84 54,138 5,54 -4,115 -28,183 -3,9 -14,19 -33,29 -18,10 -38,18 -58,25 -20,7 -37,11 -52,12 -15,1 -20,-2 -16,-9 8,-14 18,-35 30,-63 13,-28 20,-58 21,-92 1,-36 -5,-69 -18,-100 -13,-31 -31,-58 -55,-80 -24,-23 -53,-40 -85,-51 -33,-12 -68,-16 -105,-14 -54,2 -103,12 -146,31 -43,19 -80,42 -113,69 -33,27 -60,57 -83,90 -23,33 -42,64 -56,94 -15,30 -26,57 -33,80 -7,23 -11,39 -11,48 -4,57 5,106 28,148 23,42 53,80 90,114 37,34 76,66 118,97 42,31 80,64 115,99 35,36 62,75 82,119 20,44 26,96 16,158 -10,63 -29,116 -58,159 -28,43 -62,78 -101,105 -39,27 -81,47 -125,60 -44,13 -87,19 -129,20 -56,2 -102,-5 -138,-19 -36,-14 -64,-30 -85,-46 -25,-20 -44,-43 -58,-68l43 -80c20,29 44,55 73,77 23,19 51,36 84,51 33,15 69,21 110,18 13,-1 33,-5 60,-11 27,-7 54,-19 82,-38 28,-19 53,-45 77,-78 23,-33 39,-78 48,-133 6,-39 -4,-77 -28,-112 -25,-36 -56,-71 -95,-106 -39,-35 -81,-71 -127,-109 -46,-37 -87,-77 -124,-119 -37,-42 -65,-87 -85,-137 -20,-49 -24,-104 -13,-164 9,-54 28,-110 58,-168 29,-57 69,-110 119,-158 50,-48 111,-88 183,-120 72,-32 156,-50 252,-55z"/>
    <path class="fil2" d="M1627 3900c-4,24 -8,46 -12,66 -4,20 -6,37 -7,53 -1,5 -8,9 -22,11 -14,3 -28,3 -44,2 -15,-1 -29,-6 -40,-13 -11,-8 -14,-19 -9,-34 3,-24 10,-56 22,-95 12,-39 25,-81 39,-125 14,-44 27,-88 40,-131 13,-44 22,-83 26,-117 5,-35 3,-62 -5,-82 -8,-20 -25,-28 -52,-24 -20,3 -40,17 -60,40 -20,23 -38,50 -54,80 -16,30 -31,59 -43,87 -13,28 -22,49 -29,61 -20,76 -37,143 -51,201 -14,58 -22,104 -26,139 -1,5 -8,9 -21,11 -13,3 -28,3 -44,2 -16,-1 -29,-6 -40,-13 -10,-8 -13,-19 -8,-34 1,-3 7,-24 19,-65 12,-41 27,-94 45,-158l-1 0c21,-73 37,-131 49,-175 12,-44 21,-80 26,-107 6,-28 10,-51 13,-69 3,-18 6,-39 8,-61 0,-5 7,-9 20,-11 13,-3 28,-3 43,-2 15,1 28,6 40,13 11,8 14,19 9,34l-33 118c13,-21 27,-42 43,-62 16,-21 34,-39 54,-55 20,-16 41,-29 63,-40 22,-10 45,-15 70,-14 21,1 38,6 51,16 13,10 22,23 28,40 6,17 9,37 9,60 0,23 -2,47 -6,73 13,-23 28,-45 45,-68 16,-23 35,-43 55,-62 21,-18 42,-33 66,-45 23,-11 49,-17 75,-16 30,1 52,11 65,29 13,19 21,43 23,73 2,30 -1,64 -9,102 -8,38 -17,77 -29,117 -12,40 -24,79 -38,117 -13,38 -25,73 -34,103 -9,30 -15,55 -19,74 -3,19 0,29 9,30 16,3 33,-3 51,-17 18,-14 36,-32 54,-54 18,-22 34,-46 50,-72 16,-26 31,-50 44,-73 13,-23 24,-42 32,-57 8,-15 13,-23 16,-23 1,0 3,0 7,1 4,0 8,1 12,1 4,0 8,1 11,3 3,1 4,3 3,6 -3,13 -10,30 -20,53 -10,23 -23,47 -40,74 -16,27 -35,54 -56,82 -21,28 -44,52 -68,74 -24,22 -49,39 -75,52 -26,13 -52,18 -79,14 -23,-3 -39,-14 -46,-34 -8,-20 -9,-46 -6,-77 4,-31 11,-66 21,-105 10,-39 22,-78 35,-117 13,-39 24,-78 34,-115 10,-37 16,-70 18,-98 2,-28 -1,-50 -9,-65 -8,-15 -25,-22 -51,-18 -15,3 -30,11 -45,25 -15,14 -29,31 -42,51 -13,20 -26,41 -38,64 -12,23 -23,45 -32,65 -9,20 -17,37 -23,51 -6,14 -10,22 -13,24 -13,40 -25,78 -38,115 -13,36 -23,68 -30,95z"/>
    <path class="fil3" d="M2590 3342c6,-1 14,-1 26,1 11,1 22,4 33,8 10,4 19,11 25,19 6,9 7,21 2,36 -2,3 -7,19 -16,47 -9,28 -19,62 -31,103 -12,41 -25,84 -38,130 -13,46 -25,88 -36,127 -10,39 -19,72 -24,98 -6,26 -7,40 -4,40 9,1 20,-5 33,-19 13,-13 27,-30 41,-50 14,-20 28,-42 43,-65 14,-23 27,-45 38,-65 11,-20 21,-37 28,-50 7,-13 11,-20 12,-20 1,0 3,0 7,1 4,0 8,1 12,1 4,0 8,1 11,3 3,1 4,3 3,6 0,2 -5,11 -14,29 -9,18 -21,39 -35,65 -14,26 -31,53 -51,83 -20,30 -40,57 -61,82 -21,25 -43,45 -65,61 -22,16 -43,24 -63,23 -11,0 -19,-2 -26,-7 -6,-5 -12,-11 -16,-18 -4,-8 -7,-16 -8,-25 -1,-9 -2,-18 -3,-28 -17,20 -33,36 -50,46 -17,11 -33,19 -48,24 -15,5 -28,8 -39,8 -11,0 -19,0 -24,-1 -12,-1 -26,-5 -44,-12 -18,-7 -33,-22 -45,-44 -13,-22 -20,-55 -23,-97 -3,-43 6,-100 25,-173 17,-63 36,-116 56,-159 21,-43 42,-78 65,-106 22,-28 44,-49 67,-65 22,-15 43,-27 62,-33 19,-7 35,-11 48,-12 13,-1 23,-2 29,-2 13,0 23,3 31,8 8,5 15,12 21,20 6,8 11,17 14,26 3,9 5,18 7,26 7,-21 12,-37 17,-50 5,-12 8,-19 9,-19zm-285 631c16,0 30,-4 43,-12 13,-8 24,-18 34,-29 10,-11 18,-23 26,-36 8,-13 15,-25 22,-37 5,-22 12,-47 21,-77 9,-30 18,-61 28,-94 10,-33 19,-66 29,-100 10,-33 20,-65 29,-95 -2,2 -2,-1 0,-8 3,-11 4,-22 3,-35 -2,-12 -5,-23 -10,-33 -5,-10 -11,-18 -19,-25 -8,-7 -15,-10 -24,-10 -16,0 -31,6 -46,18 -15,12 -30,28 -44,48 -14,20 -27,41 -40,65 -12,24 -23,47 -33,71 -10,23 -18,45 -25,65 -7,20 -12,36 -16,48 -6,17 -12,41 -19,72 -7,31 -11,62 -13,93 -2,31 1,58 8,80 7,22 22,33 45,32z"/>
    <path class="fil1" d="M3000 3362c8,-1 19,-4 31,-9 12,-5 24,-9 37,-13 13,-4 25,-5 36,-4 12,1 21,7 28,18 3,5 6,12 8,20 2,8 3,17 3,26 0,9 -1,17 -3,25 -2,8 -6,14 -13,18 -6,4 -14,17 -25,38 -11,21 -20,46 -27,73 -7,28 -10,56 -9,85 1,29 10,54 26,74 3,4 1,10 -4,18 -5,8 -13,15 -23,21 -10,7 -22,13 -36,18 -14,5 -27,7 -40,5 -13,-2 -25,-8 -35,-18 -10,-10 -18,-26 -23,-48 -4,-22 -2,-48 6,-79 8,-31 17,-61 28,-90 11,-29 21,-55 30,-76 9,-21 13,-33 11,-35 -3,-3 -9,2 -18,14 -10,12 -22,28 -36,50 -15,21 -30,46 -47,75 -17,29 -33,59 -50,90 -16,31 -32,62 -46,94 -15,32 -27,61 -36,88 -9,38 -17,72 -23,102 -6,30 -10,56 -12,78 -1,5 -8,9 -21,11 -13,3 -28,3 -44,2 -16,-1 -29,-6 -40,-13 -10,-8 -13,-19 -8,-34 1,-3 7,-24 19,-65 12,-41 27,-94 45,-158l-1 0c21,-73 37,-131 49,-175 12,-44 21,-80 26,-107 6,-28 10,-51 13,-69 3,-18 6,-39 8,-61 0,-5 7,-9 20,-11 13,-3 28,-3 43,-2 15,1 28,6 40,13 11,8 14,19 9,34 -12,40 -23,79 -33,115 -10,37 -20,73 -29,108 16,-30 33,-60 50,-88 18,-29 34,-55 50,-78 15,-23 29,-42 41,-56 12,-14 20,-22 25,-23z"/>
    <path class="fil2" d="M3616 3059c13,0 20,4 20,12 0,8 -4,17 -11,26 -7,10 -16,19 -26,27 -10,8 -18,13 -24,15 -3,1 -10,1 -19,1 -9,0 -21,0 -36,-1 -15,0 -32,-1 -51,-1 -20,0 -40,-1 -62,-2 -15,55 -31,114 -49,176 -18,62 -35,123 -51,183 -16,60 -32,118 -46,173 -15,55 -27,103 -38,145 -10,42 -18,75 -23,100 -5,25 -6,37 -4,37 9,1 20,-5 33,-19 13,-13 26,-30 40,-50 14,-20 28,-42 42,-65 14,-23 27,-45 38,-65 11,-20 21,-37 28,-50 8,-13 12,-20 13,-20 1,0 3,0 7,1 4,0 8,1 12,1 4,0 8,1 11,3 3,1 4,3 3,6 0,2 -5,11 -14,29 -9,18 -21,39 -35,65 -14,26 -31,53 -51,83 -20,30 -40,57 -62,82 -22,25 -44,45 -65,61 -22,16 -43,24 -64,23 -14,0 -25,-4 -33,-13 -8,-8 -13,-18 -15,-29 -3,-11 -4,-23 -4,-36 0,-13 1,-23 4,-33 1,-4 5,-19 11,-45 7,-26 16,-58 27,-99 11,-40 24,-86 38,-138 14,-52 29,-106 45,-163 16,-57 32,-115 48,-174 16,-59 31,-116 46,-170 -40,-2 -79,-3 -117,-3 -38,0 -71,0 -100,2 -4,0 -5,-2 -4,-6 2,-4 5,-9 9,-13 4,-5 9,-9 14,-12 5,-3 10,-5 14,-5 18,-1 37,-2 59,-4 18,-2 38,-3 62,-5 24,-2 49,-4 76,-6 9,-36 18,-70 26,-102 8,-32 15,-60 21,-86 6,-26 11,-47 14,-66 4,-18 6,-32 8,-41 0,-5 7,-9 21,-11 14,-3 29,-3 44,-2 15,1 28,6 39,13 11,8 14,19 9,34 -2,3 -9,28 -23,75 -13,47 -30,106 -50,177 25,-2 49,-3 72,-5 23,-2 43,-3 60,-4 18,-1 32,-2 42,-3 10,-1 16,-1 17,-1z"/>
    <path class="fil3" d="M4711 2677c5,-7 13,-10 23,-9 10,0 21,3 33,9 12,5 25,12 38,21 13,8 24,17 34,26 10,9 17,17 22,24 5,8 6,13 4,16l-398 1447c-3,10 -10,15 -19,14 -9,0 -18,-3 -28,-8 -9,-5 -17,-11 -24,-19 -7,-8 -10,-14 -9,-19 33,-140 66,-279 97,-418 13,-59 27,-122 42,-186 15,-65 29,-130 44,-195 15,-65 29,-129 43,-193 14,-63 27,-123 39,-179 -24,51 -51,109 -80,174 -29,65 -60,134 -91,205 -31,72 -63,144 -94,218 -31,74 -59,144 -85,211 -26,67 -49,129 -68,186 -19,57 -33,104 -41,142 0,4 0,7 0,9 0,2 0,3 -1,4l-3 4c-1,2 -1,3 -1,4 0,1 0,2 -1,4 0,1 -1,0 -3,-3 -8,6 -19,5 -32,-3 -13,-8 -26,-19 -39,-34 -13,-15 -24,-31 -34,-49 -10,-18 -15,-34 -16,-47 -2,-41 -5,-96 -9,-164 -4,-68 -9,-143 -16,-225 -6,-82 -13,-167 -19,-255 -7,-88 -13,-173 -20,-253l-292 1107c-5,5 -12,7 -22,6 -10,-1 -19,-5 -28,-11 -9,-6 -16,-13 -23,-21 -6,-8 -9,-18 -8,-28 59,-259 114,-493 163,-704 20,-90 40,-178 61,-266 21,-88 39,-168 56,-240 17,-72 31,-133 41,-183 11,-49 18,-81 21,-94l1 -3c1,-13 10,-25 26,-36 17,-10 35,-17 54,-20 19,-3 35,-1 48,6 13,7 16,22 9,43 -7,20 -10,55 -11,105 -1,50 0,109 3,178 3,69 7,145 13,227 5,82 12,165 19,248 7,84 14,165 21,245 7,80 13,152 19,215 24,-53 52,-113 82,-179 31,-67 62,-137 95,-211 33,-74 67,-149 101,-225 34,-77 67,-151 99,-224 31,-73 61,-142 88,-206 28,-65 51,-123 70,-174 0,-3 0,-6 1,-9 0,-3 1,-5 2,-8z"/>
    <path class="fil1" d="M4800 3467c4,-6 10,-9 18,-10 17,-38 40,-70 70,-97 30,-27 69,-44 117,-51 41,-6 72,4 94,31 22,26 35,62 41,107 5,45 4,95 -5,152 -9,56 -23,112 -43,166 44,-22 89,-58 133,-108 6,-7 13,-11 21,-13 8,-2 15,-1 21,1 6,2 10,6 12,11 2,5 -1,12 -8,18 -43,45 -81,80 -114,104 -33,24 -65,42 -94,53 -16,33 -33,63 -51,90 -18,28 -38,51 -60,70 -21,19 -44,34 -67,44 -23,10 -48,13 -73,10 -42,-5 -73,-20 -94,-46 -21,-26 -34,-56 -40,-93 -6,-36 -5,-76 1,-120 7,-44 17,-86 30,-127 13,-41 28,-79 45,-113 17,-34 33,-61 48,-80zm48 157c6,53 22,93 48,121 26,28 60,42 100,43 15,-45 28,-92 38,-142 10,-49 16,-95 18,-136 1,-41 -3,-76 -12,-105 -9,-28 -25,-45 -48,-49 -13,-2 -25,1 -37,7 -12,6 -23,15 -34,25 -10,10 -20,22 -28,36 -8,13 -16,26 -23,39 15,7 28,14 39,23 11,8 14,15 10,20 -13,15 -26,33 -38,53 -12,20 -23,42 -33,65zm126 223c-38,-1 -72,-11 -101,-29 -29,-19 -51,-46 -66,-81 -11,37 -19,72 -23,107 -5,34 -5,64 -2,89 3,25 12,44 24,56 13,13 31,15 55,8 19,-6 39,-22 58,-49 20,-27 38,-60 55,-100z"/>
    <path class="fil2" d="M5272 3330c0,-6 6,-9 19,-9 13,0 27,2 41,7 15,5 28,13 40,23 12,10 18,22 18,35 -1,6 -4,19 -9,39 -5,20 -11,45 -19,74 -8,29 -16,62 -24,97 -9,36 -17,71 -25,107 -8,36 -15,71 -21,105 -6,34 -10,65 -11,91 -2,26 -1,47 3,63 4,15 11,23 22,23 14,0 30,-9 46,-26 16,-18 33,-40 49,-68 16,-28 32,-58 48,-92 16,-34 31,-68 44,-101 -18,-8 -32,-23 -40,-46 -8,-23 -12,-50 -11,-80 0,-30 5,-62 13,-95 8,-33 19,-64 33,-92 13,-28 29,-51 48,-70 19,-18 40,-28 62,-29 16,-1 29,4 39,13 10,10 15,27 14,52 -1,6 -3,18 -7,36 -4,18 -10,41 -18,69 -8,28 -17,59 -27,93 -10,34 -22,69 -35,105 28,-1 54,-10 79,-28 25,-18 48,-37 68,-58 21,-21 37,-41 51,-60 13,-19 22,-30 26,-35 10,-9 17,-11 21,-5 4,6 5,17 1,33 -3,8 -12,22 -27,45 -15,22 -35,45 -59,68 -24,23 -52,44 -83,63 -32,19 -64,29 -98,30 -17,41 -35,81 -54,119 -19,38 -40,73 -61,104 -22,31 -45,55 -70,75 -25,19 -50,29 -75,30 -39,3 -67,-9 -84,-35 -17,-26 -26,-60 -28,-103 -2,-43 2,-91 11,-144 9,-54 20,-107 32,-159 12,-53 24,-102 35,-149 11,-46 18,-84 20,-112zm314 5c-9,2 -18,9 -28,22 -9,13 -18,29 -26,49 -8,20 -15,41 -21,65 -6,23 -10,46 -12,68 -2,22 -2,42 0,60 2,18 7,32 16,41 14,-38 26,-70 35,-97 9,-27 14,-42 14,-46 2,-7 6,-19 12,-38 6,-18 12,-37 17,-56 5,-19 8,-35 8,-50 0,-14 -5,-21 -15,-19z"/>
    <path class="fil3" d="M5771 3342c6,-1 14,-1 26,1 11,1 22,4 32,8 10,4 18,11 24,19 6,9 7,21 3,36 -2,3 -7,19 -16,47 -9,28 -19,62 -31,103 -12,41 -25,84 -39,130 -14,46 -26,88 -36,127 -10,39 -19,72 -24,98 -6,26 -7,40 -3,40 9,1 20,-5 33,-19 13,-13 27,-30 41,-50 14,-20 28,-42 42,-65 14,-23 27,-45 38,-65 12,-20 21,-37 28,-50 7,-13 11,-20 12,-20 1,0 3,0 7,1 4,0 8,1 12,1 4,0 8,1 11,3 3,1 4,3 3,6 0,2 -5,11 -14,29 -9,18 -21,39 -35,65 -14,26 -31,53 -51,83 -20,30 -40,57 -61,82 -21,25 -43,45 -65,61 -22,16 -43,24 -63,23 -14,0 -25,-4 -33,-13 -8,-9 -13,-19 -15,-31 -3,-12 -4,-24 -3,-36 0,-13 1,-23 2,-30 0,-5 4,-23 13,-53 9,-31 19,-67 31,-110 12,-43 25,-89 40,-137 15,-49 28,-94 41,-135 13,-41 24,-76 33,-103 9,-27 15,-41 18,-42zm26 -200c7,-28 20,-53 41,-73 21,-20 42,-30 63,-30 22,0 38,10 48,30 10,20 12,44 5,73 -7,28 -20,53 -40,73 -20,20 -41,30 -63,30 -22,0 -38,-10 -48,-30 -10,-20 -12,-44 -6,-73z"/>
    <path class="fil1" d="M6162 3330c34,-3 60,5 76,25 16,20 27,46 31,77 4,31 4,64 -1,100 -5,36 -13,69 -23,98 -22,63 -46,112 -73,148 -27,36 -54,63 -80,82 -27,19 -52,31 -76,36 -24,5 -42,8 -56,8 3,32 12,53 25,63 13,10 24,15 31,13 23,-2 45,-9 66,-21 21,-12 42,-28 61,-46 19,-19 37,-40 55,-62 17,-23 33,-45 46,-67 14,-22 25,-42 35,-61 9,-19 16,-34 21,-45 3,-4 10,-6 21,-6 10,0 16,5 16,13 -1,3 -6,13 -14,31 -9,18 -21,40 -36,65 -15,26 -34,53 -55,82 -21,29 -45,56 -71,80 -26,25 -54,46 -83,63 -30,17 -60,27 -91,28 -28,2 -51,-3 -68,-14 -17,-11 -30,-26 -40,-44 -9,-18 -15,-38 -18,-60 -3,-22 -4,-44 -3,-64 1,-21 2,-38 4,-54 2,-15 4,-26 6,-32 3,-12 7,-30 14,-55 7,-25 17,-53 28,-85 12,-31 26,-64 42,-98 16,-34 35,-65 56,-94 21,-29 45,-53 70,-72 26,-19 54,-30 85,-33zm-186 432c-7,23 -12,43 -14,62 -3,18 -4,35 -4,49 10,1 23,0 40,-4 16,-3 34,-13 53,-28 19,-15 38,-39 58,-71 20,-32 38,-76 56,-133 27,-91 39,-158 36,-200 -3,-42 -18,-61 -46,-56 -9,2 -19,10 -29,24 -10,14 -21,32 -33,55 -12,22 -24,47 -35,74 -11,27 -22,55 -32,83 -10,28 -19,55 -28,80 -9,26 -15,47 -19,66z"/>
   </g>
  </g>
 </g>
</svg>
